G04 EAGLE Gerber RS-274X export*
G75*
%MOMM*%
%FSLAX34Y34*%
%LPD*%
%IN*%
%IPPOS*%
%AMOC8*
5,1,8,0,0,1.08239X$1,22.5*%
G01*
%ADD10C,0.254000*%


D10*
X10000Y60000D02*
X950000Y60000D01*
X950000Y1010000D01*
X10000Y1010000D01*
X10000Y60000D01*
X54370Y555724D02*
X54294Y554656D01*
X54141Y553595D01*
X53913Y552548D01*
X53611Y551520D01*
X53237Y550516D01*
X52792Y549541D01*
X52278Y548601D01*
X51699Y547700D01*
X51057Y546842D01*
X50355Y546032D01*
X49598Y545275D01*
X48788Y544573D01*
X47930Y543931D01*
X47029Y543352D01*
X46089Y542838D01*
X45114Y542393D01*
X44110Y542019D01*
X43082Y541717D01*
X42035Y541489D01*
X40974Y541336D01*
X39906Y541260D01*
X38834Y541260D01*
X37766Y541336D01*
X36705Y541489D01*
X35658Y541717D01*
X34630Y542019D01*
X33626Y542393D01*
X32651Y542838D01*
X31711Y543352D01*
X30810Y543931D01*
X29952Y544573D01*
X29142Y545275D01*
X28385Y546032D01*
X27683Y546842D01*
X27041Y547700D01*
X26462Y548601D01*
X25948Y549541D01*
X25503Y550516D01*
X25129Y551520D01*
X24827Y552548D01*
X24599Y553595D01*
X24446Y554656D01*
X24370Y555724D01*
X24370Y556796D01*
X24446Y557864D01*
X24599Y558925D01*
X24827Y559972D01*
X25129Y561000D01*
X25503Y562004D01*
X25948Y562979D01*
X26462Y563919D01*
X27041Y564820D01*
X27683Y565678D01*
X28385Y566488D01*
X29142Y567245D01*
X29952Y567947D01*
X30810Y568589D01*
X31711Y569168D01*
X32651Y569682D01*
X33626Y570127D01*
X34630Y570501D01*
X35658Y570803D01*
X36705Y571031D01*
X37766Y571184D01*
X38834Y571260D01*
X39906Y571260D01*
X40974Y571184D01*
X42035Y571031D01*
X43082Y570803D01*
X44110Y570501D01*
X45114Y570127D01*
X46089Y569682D01*
X47029Y569168D01*
X47930Y568589D01*
X48788Y567947D01*
X49598Y567245D01*
X50355Y566488D01*
X51057Y565678D01*
X51699Y564820D01*
X52278Y563919D01*
X52792Y562979D01*
X53237Y562004D01*
X53611Y561000D01*
X53913Y559972D01*
X54141Y558925D01*
X54294Y557864D01*
X54370Y556796D01*
X54370Y555724D01*
X685480Y174656D02*
X685407Y173449D01*
X685261Y172249D01*
X685043Y171060D01*
X684754Y169887D01*
X684395Y168733D01*
X683966Y167603D01*
X683470Y166501D01*
X682908Y165430D01*
X682283Y164396D01*
X681596Y163401D01*
X680851Y162450D01*
X680049Y161545D01*
X679195Y160691D01*
X678290Y159889D01*
X677339Y159144D01*
X676344Y158457D01*
X675310Y157832D01*
X674239Y157270D01*
X673137Y156774D01*
X672007Y156345D01*
X670853Y155986D01*
X669680Y155697D01*
X668491Y155479D01*
X667291Y155333D01*
X666084Y155260D01*
X664876Y155260D01*
X663669Y155333D01*
X662469Y155479D01*
X661280Y155697D01*
X660107Y155986D01*
X658953Y156345D01*
X657823Y156774D01*
X656721Y157270D01*
X655650Y157832D01*
X654616Y158457D01*
X653621Y159144D01*
X652670Y159889D01*
X651765Y160691D01*
X650911Y161545D01*
X650109Y162450D01*
X649364Y163401D01*
X648677Y164396D01*
X648052Y165430D01*
X647490Y166501D01*
X646994Y167603D01*
X646565Y168733D01*
X646206Y169887D01*
X645917Y171060D01*
X645699Y172249D01*
X645553Y173449D01*
X645480Y174656D01*
X645480Y175864D01*
X645553Y177071D01*
X645699Y178271D01*
X645917Y179460D01*
X646206Y180633D01*
X646565Y181787D01*
X646994Y182917D01*
X647490Y184019D01*
X648052Y185090D01*
X648677Y186124D01*
X649364Y187119D01*
X650109Y188070D01*
X650911Y188975D01*
X651765Y189829D01*
X652670Y190631D01*
X653621Y191376D01*
X654616Y192063D01*
X655650Y192688D01*
X656721Y193250D01*
X657823Y193746D01*
X658953Y194175D01*
X660107Y194534D01*
X661280Y194823D01*
X662469Y195041D01*
X663669Y195187D01*
X664876Y195260D01*
X666084Y195260D01*
X667291Y195187D01*
X668491Y195041D01*
X669680Y194823D01*
X670853Y194534D01*
X672007Y194175D01*
X673137Y193746D01*
X674239Y193250D01*
X675310Y192688D01*
X676344Y192063D01*
X677339Y191376D01*
X678290Y190631D01*
X679195Y189829D01*
X680049Y188975D01*
X680851Y188070D01*
X681596Y187119D01*
X682283Y186124D01*
X682908Y185090D01*
X683470Y184019D01*
X683966Y182917D01*
X684395Y181787D01*
X684754Y180633D01*
X685043Y179460D01*
X685261Y178271D01*
X685407Y177071D01*
X685480Y175864D01*
X685480Y174656D01*
X623180Y174889D02*
X623115Y174149D01*
X622986Y173419D01*
X622794Y172702D01*
X622540Y172004D01*
X622227Y171331D01*
X621856Y170689D01*
X621430Y170081D01*
X620953Y169512D01*
X620428Y168987D01*
X619859Y168510D01*
X619251Y168084D01*
X618609Y167713D01*
X617936Y167400D01*
X617238Y167146D01*
X616522Y166954D01*
X615791Y166825D01*
X615051Y166760D01*
X614309Y166760D01*
X613569Y166825D01*
X612839Y166954D01*
X612122Y167146D01*
X611424Y167400D01*
X610751Y167713D01*
X610109Y168084D01*
X609501Y168510D01*
X608932Y168987D01*
X608407Y169512D01*
X607930Y170081D01*
X607504Y170689D01*
X607133Y171331D01*
X606820Y172004D01*
X606566Y172702D01*
X606374Y173419D01*
X606245Y174149D01*
X606180Y174889D01*
X606180Y175631D01*
X606245Y176371D01*
X606374Y177102D01*
X606566Y177818D01*
X606820Y178516D01*
X607133Y179189D01*
X607504Y179831D01*
X607930Y180439D01*
X608407Y181008D01*
X608932Y181533D01*
X609501Y182010D01*
X610109Y182436D01*
X610751Y182807D01*
X611424Y183120D01*
X612122Y183374D01*
X612839Y183566D01*
X613569Y183695D01*
X614309Y183760D01*
X615051Y183760D01*
X615791Y183695D01*
X616522Y183566D01*
X617238Y183374D01*
X617936Y183120D01*
X618609Y182807D01*
X619251Y182436D01*
X619859Y182010D01*
X620428Y181533D01*
X620953Y181008D01*
X621430Y180439D01*
X621856Y179831D01*
X622227Y179189D01*
X622540Y178516D01*
X622794Y177818D01*
X622986Y177102D01*
X623115Y176371D01*
X623180Y175631D01*
X623180Y174889D01*
X724780Y174889D02*
X724715Y174149D01*
X724586Y173419D01*
X724394Y172702D01*
X724140Y172004D01*
X723827Y171331D01*
X723456Y170689D01*
X723030Y170081D01*
X722553Y169512D01*
X722028Y168987D01*
X721459Y168510D01*
X720851Y168084D01*
X720209Y167713D01*
X719536Y167400D01*
X718838Y167146D01*
X718122Y166954D01*
X717391Y166825D01*
X716651Y166760D01*
X715909Y166760D01*
X715169Y166825D01*
X714439Y166954D01*
X713722Y167146D01*
X713024Y167400D01*
X712351Y167713D01*
X711709Y168084D01*
X711101Y168510D01*
X710532Y168987D01*
X710007Y169512D01*
X709530Y170081D01*
X709104Y170689D01*
X708733Y171331D01*
X708420Y172004D01*
X708166Y172702D01*
X707974Y173419D01*
X707845Y174149D01*
X707780Y174889D01*
X707780Y175631D01*
X707845Y176371D01*
X707974Y177102D01*
X708166Y177818D01*
X708420Y178516D01*
X708733Y179189D01*
X709104Y179831D01*
X709530Y180439D01*
X710007Y181008D01*
X710532Y181533D01*
X711101Y182010D01*
X711709Y182436D01*
X712351Y182807D01*
X713024Y183120D01*
X713722Y183374D01*
X714439Y183566D01*
X715169Y183695D01*
X715909Y183760D01*
X716651Y183760D01*
X717391Y183695D01*
X718122Y183566D01*
X718838Y183374D01*
X719536Y183120D01*
X720209Y182807D01*
X720851Y182436D01*
X721459Y182010D01*
X722028Y181533D01*
X722553Y181008D01*
X723030Y180439D01*
X723456Y179831D01*
X723827Y179189D01*
X724140Y178516D01*
X724394Y177818D01*
X724586Y177102D01*
X724715Y176371D01*
X724780Y175631D01*
X724780Y174889D01*
X304480Y936656D02*
X304407Y935449D01*
X304261Y934249D01*
X304043Y933060D01*
X303754Y931887D01*
X303395Y930733D01*
X302966Y929603D01*
X302470Y928501D01*
X301908Y927430D01*
X301283Y926396D01*
X300596Y925401D01*
X299851Y924450D01*
X299049Y923545D01*
X298195Y922691D01*
X297290Y921889D01*
X296339Y921144D01*
X295344Y920457D01*
X294310Y919832D01*
X293239Y919270D01*
X292137Y918774D01*
X291007Y918345D01*
X289853Y917986D01*
X288680Y917697D01*
X287491Y917479D01*
X286291Y917333D01*
X285084Y917260D01*
X283876Y917260D01*
X282669Y917333D01*
X281469Y917479D01*
X280280Y917697D01*
X279107Y917986D01*
X277953Y918345D01*
X276823Y918774D01*
X275721Y919270D01*
X274650Y919832D01*
X273616Y920457D01*
X272621Y921144D01*
X271670Y921889D01*
X270765Y922691D01*
X269911Y923545D01*
X269109Y924450D01*
X268364Y925401D01*
X267677Y926396D01*
X267052Y927430D01*
X266490Y928501D01*
X265994Y929603D01*
X265565Y930733D01*
X265206Y931887D01*
X264917Y933060D01*
X264699Y934249D01*
X264553Y935449D01*
X264480Y936656D01*
X264480Y937864D01*
X264553Y939071D01*
X264699Y940271D01*
X264917Y941460D01*
X265206Y942633D01*
X265565Y943787D01*
X265994Y944917D01*
X266490Y946019D01*
X267052Y947090D01*
X267677Y948124D01*
X268364Y949119D01*
X269109Y950070D01*
X269911Y950975D01*
X270765Y951829D01*
X271670Y952631D01*
X272621Y953376D01*
X273616Y954063D01*
X274650Y954688D01*
X275721Y955250D01*
X276823Y955746D01*
X277953Y956175D01*
X279107Y956534D01*
X280280Y956823D01*
X281469Y957041D01*
X282669Y957187D01*
X283876Y957260D01*
X285084Y957260D01*
X286291Y957187D01*
X287491Y957041D01*
X288680Y956823D01*
X289853Y956534D01*
X291007Y956175D01*
X292137Y955746D01*
X293239Y955250D01*
X294310Y954688D01*
X295344Y954063D01*
X296339Y953376D01*
X297290Y952631D01*
X298195Y951829D01*
X299049Y950975D01*
X299851Y950070D01*
X300596Y949119D01*
X301283Y948124D01*
X301908Y947090D01*
X302470Y946019D01*
X302966Y944917D01*
X303395Y943787D01*
X303754Y942633D01*
X304043Y941460D01*
X304261Y940271D01*
X304407Y939071D01*
X304480Y937864D01*
X304480Y936656D01*
X242180Y936889D02*
X242115Y936149D01*
X241986Y935419D01*
X241794Y934702D01*
X241540Y934004D01*
X241227Y933331D01*
X240856Y932689D01*
X240430Y932081D01*
X239953Y931512D01*
X239428Y930987D01*
X238859Y930510D01*
X238251Y930084D01*
X237609Y929713D01*
X236936Y929400D01*
X236238Y929146D01*
X235522Y928954D01*
X234791Y928825D01*
X234051Y928760D01*
X233309Y928760D01*
X232569Y928825D01*
X231839Y928954D01*
X231122Y929146D01*
X230424Y929400D01*
X229751Y929713D01*
X229109Y930084D01*
X228501Y930510D01*
X227932Y930987D01*
X227407Y931512D01*
X226930Y932081D01*
X226504Y932689D01*
X226133Y933331D01*
X225820Y934004D01*
X225566Y934702D01*
X225374Y935419D01*
X225245Y936149D01*
X225180Y936889D01*
X225180Y937631D01*
X225245Y938371D01*
X225374Y939102D01*
X225566Y939818D01*
X225820Y940516D01*
X226133Y941189D01*
X226504Y941831D01*
X226930Y942439D01*
X227407Y943008D01*
X227932Y943533D01*
X228501Y944010D01*
X229109Y944436D01*
X229751Y944807D01*
X230424Y945120D01*
X231122Y945374D01*
X231839Y945566D01*
X232569Y945695D01*
X233309Y945760D01*
X234051Y945760D01*
X234791Y945695D01*
X235522Y945566D01*
X236238Y945374D01*
X236936Y945120D01*
X237609Y944807D01*
X238251Y944436D01*
X238859Y944010D01*
X239428Y943533D01*
X239953Y943008D01*
X240430Y942439D01*
X240856Y941831D01*
X241227Y941189D01*
X241540Y940516D01*
X241794Y939818D01*
X241986Y939102D01*
X242115Y938371D01*
X242180Y937631D01*
X242180Y936889D01*
X343780Y936889D02*
X343715Y936149D01*
X343586Y935419D01*
X343394Y934702D01*
X343140Y934004D01*
X342827Y933331D01*
X342456Y932689D01*
X342030Y932081D01*
X341553Y931512D01*
X341028Y930987D01*
X340459Y930510D01*
X339851Y930084D01*
X339209Y929713D01*
X338536Y929400D01*
X337838Y929146D01*
X337122Y928954D01*
X336391Y928825D01*
X335651Y928760D01*
X334909Y928760D01*
X334169Y928825D01*
X333439Y928954D01*
X332722Y929146D01*
X332024Y929400D01*
X331351Y929713D01*
X330709Y930084D01*
X330101Y930510D01*
X329532Y930987D01*
X329007Y931512D01*
X328530Y932081D01*
X328104Y932689D01*
X327733Y933331D01*
X327420Y934004D01*
X327166Y934702D01*
X326974Y935419D01*
X326845Y936149D01*
X326780Y936889D01*
X326780Y937631D01*
X326845Y938371D01*
X326974Y939102D01*
X327166Y939818D01*
X327420Y940516D01*
X327733Y941189D01*
X328104Y941831D01*
X328530Y942439D01*
X329007Y943008D01*
X329532Y943533D01*
X330101Y944010D01*
X330709Y944436D01*
X331351Y944807D01*
X332024Y945120D01*
X332722Y945374D01*
X333439Y945566D01*
X334169Y945695D01*
X334909Y945760D01*
X335651Y945760D01*
X336391Y945695D01*
X337122Y945566D01*
X337838Y945374D01*
X338536Y945120D01*
X339209Y944807D01*
X339851Y944436D01*
X340459Y944010D01*
X341028Y943533D01*
X341553Y943008D01*
X342030Y942439D01*
X342456Y941831D01*
X342827Y941189D01*
X343140Y940516D01*
X343394Y939818D01*
X343586Y939102D01*
X343715Y938371D01*
X343780Y937631D01*
X343780Y936889D01*
X875980Y936656D02*
X875907Y935449D01*
X875761Y934249D01*
X875543Y933060D01*
X875254Y931887D01*
X874895Y930733D01*
X874466Y929603D01*
X873970Y928501D01*
X873408Y927430D01*
X872783Y926396D01*
X872096Y925401D01*
X871351Y924450D01*
X870549Y923545D01*
X869695Y922691D01*
X868790Y921889D01*
X867839Y921144D01*
X866844Y920457D01*
X865810Y919832D01*
X864739Y919270D01*
X863637Y918774D01*
X862507Y918345D01*
X861353Y917986D01*
X860180Y917697D01*
X858991Y917479D01*
X857791Y917333D01*
X856584Y917260D01*
X855376Y917260D01*
X854169Y917333D01*
X852969Y917479D01*
X851780Y917697D01*
X850607Y917986D01*
X849453Y918345D01*
X848323Y918774D01*
X847221Y919270D01*
X846150Y919832D01*
X845116Y920457D01*
X844121Y921144D01*
X843170Y921889D01*
X842265Y922691D01*
X841411Y923545D01*
X840609Y924450D01*
X839864Y925401D01*
X839177Y926396D01*
X838552Y927430D01*
X837990Y928501D01*
X837494Y929603D01*
X837065Y930733D01*
X836706Y931887D01*
X836417Y933060D01*
X836199Y934249D01*
X836053Y935449D01*
X835980Y936656D01*
X835980Y937864D01*
X836053Y939071D01*
X836199Y940271D01*
X836417Y941460D01*
X836706Y942633D01*
X837065Y943787D01*
X837494Y944917D01*
X837990Y946019D01*
X838552Y947090D01*
X839177Y948124D01*
X839864Y949119D01*
X840609Y950070D01*
X841411Y950975D01*
X842265Y951829D01*
X843170Y952631D01*
X844121Y953376D01*
X845116Y954063D01*
X846150Y954688D01*
X847221Y955250D01*
X848323Y955746D01*
X849453Y956175D01*
X850607Y956534D01*
X851780Y956823D01*
X852969Y957041D01*
X854169Y957187D01*
X855376Y957260D01*
X856584Y957260D01*
X857791Y957187D01*
X858991Y957041D01*
X860180Y956823D01*
X861353Y956534D01*
X862507Y956175D01*
X863637Y955746D01*
X864739Y955250D01*
X865810Y954688D01*
X866844Y954063D01*
X867839Y953376D01*
X868790Y952631D01*
X869695Y951829D01*
X870549Y950975D01*
X871351Y950070D01*
X872096Y949119D01*
X872783Y948124D01*
X873408Y947090D01*
X873970Y946019D01*
X874466Y944917D01*
X874895Y943787D01*
X875254Y942633D01*
X875543Y941460D01*
X875761Y940271D01*
X875907Y939071D01*
X875980Y937864D01*
X875980Y936656D01*
X813680Y936889D02*
X813615Y936149D01*
X813486Y935419D01*
X813294Y934702D01*
X813040Y934004D01*
X812727Y933331D01*
X812356Y932689D01*
X811930Y932081D01*
X811453Y931512D01*
X810928Y930987D01*
X810359Y930510D01*
X809751Y930084D01*
X809109Y929713D01*
X808436Y929400D01*
X807738Y929146D01*
X807022Y928954D01*
X806291Y928825D01*
X805551Y928760D01*
X804809Y928760D01*
X804069Y928825D01*
X803339Y928954D01*
X802622Y929146D01*
X801924Y929400D01*
X801251Y929713D01*
X800609Y930084D01*
X800001Y930510D01*
X799432Y930987D01*
X798907Y931512D01*
X798430Y932081D01*
X798004Y932689D01*
X797633Y933331D01*
X797320Y934004D01*
X797066Y934702D01*
X796874Y935419D01*
X796745Y936149D01*
X796680Y936889D01*
X796680Y937631D01*
X796745Y938371D01*
X796874Y939102D01*
X797066Y939818D01*
X797320Y940516D01*
X797633Y941189D01*
X798004Y941831D01*
X798430Y942439D01*
X798907Y943008D01*
X799432Y943533D01*
X800001Y944010D01*
X800609Y944436D01*
X801251Y944807D01*
X801924Y945120D01*
X802622Y945374D01*
X803339Y945566D01*
X804069Y945695D01*
X804809Y945760D01*
X805551Y945760D01*
X806291Y945695D01*
X807022Y945566D01*
X807738Y945374D01*
X808436Y945120D01*
X809109Y944807D01*
X809751Y944436D01*
X810359Y944010D01*
X810928Y943533D01*
X811453Y943008D01*
X811930Y942439D01*
X812356Y941831D01*
X812727Y941189D01*
X813040Y940516D01*
X813294Y939818D01*
X813486Y939102D01*
X813615Y938371D01*
X813680Y937631D01*
X813680Y936889D01*
X915280Y936889D02*
X915215Y936149D01*
X915086Y935419D01*
X914894Y934702D01*
X914640Y934004D01*
X914327Y933331D01*
X913956Y932689D01*
X913530Y932081D01*
X913053Y931512D01*
X912528Y930987D01*
X911959Y930510D01*
X911351Y930084D01*
X910709Y929713D01*
X910036Y929400D01*
X909338Y929146D01*
X908622Y928954D01*
X907891Y928825D01*
X907151Y928760D01*
X906409Y928760D01*
X905669Y928825D01*
X904939Y928954D01*
X904222Y929146D01*
X903524Y929400D01*
X902851Y929713D01*
X902209Y930084D01*
X901601Y930510D01*
X901032Y930987D01*
X900507Y931512D01*
X900030Y932081D01*
X899604Y932689D01*
X899233Y933331D01*
X898920Y934004D01*
X898666Y934702D01*
X898474Y935419D01*
X898345Y936149D01*
X898280Y936889D01*
X898280Y937631D01*
X898345Y938371D01*
X898474Y939102D01*
X898666Y939818D01*
X898920Y940516D01*
X899233Y941189D01*
X899604Y941831D01*
X900030Y942439D01*
X900507Y943008D01*
X901032Y943533D01*
X901601Y944010D01*
X902209Y944436D01*
X902851Y944807D01*
X903524Y945120D01*
X904222Y945374D01*
X904939Y945566D01*
X905669Y945695D01*
X906409Y945760D01*
X907151Y945760D01*
X907891Y945695D01*
X908622Y945566D01*
X909338Y945374D01*
X910036Y945120D01*
X910709Y944807D01*
X911351Y944436D01*
X911959Y944010D01*
X912528Y943533D01*
X913053Y943008D01*
X913530Y942439D01*
X913956Y941831D01*
X914327Y941189D01*
X914640Y940516D01*
X914894Y939818D01*
X915086Y939102D01*
X915215Y938371D01*
X915280Y937631D01*
X915280Y936889D01*
X401000Y174656D02*
X400927Y173449D01*
X400781Y172249D01*
X400563Y171060D01*
X400274Y169887D01*
X399915Y168733D01*
X399486Y167603D01*
X398990Y166501D01*
X398428Y165430D01*
X397803Y164396D01*
X397116Y163401D01*
X396371Y162450D01*
X395569Y161545D01*
X394715Y160691D01*
X393810Y159889D01*
X392859Y159144D01*
X391864Y158457D01*
X390830Y157832D01*
X389759Y157270D01*
X388657Y156774D01*
X387527Y156345D01*
X386373Y155986D01*
X385200Y155697D01*
X384011Y155479D01*
X382811Y155333D01*
X381604Y155260D01*
X380396Y155260D01*
X379189Y155333D01*
X377989Y155479D01*
X376800Y155697D01*
X375627Y155986D01*
X374473Y156345D01*
X373343Y156774D01*
X372241Y157270D01*
X371170Y157832D01*
X370136Y158457D01*
X369141Y159144D01*
X368190Y159889D01*
X367285Y160691D01*
X366431Y161545D01*
X365629Y162450D01*
X364884Y163401D01*
X364197Y164396D01*
X363572Y165430D01*
X363010Y166501D01*
X362514Y167603D01*
X362085Y168733D01*
X361726Y169887D01*
X361437Y171060D01*
X361219Y172249D01*
X361073Y173449D01*
X361000Y174656D01*
X361000Y175864D01*
X361073Y177071D01*
X361219Y178271D01*
X361437Y179460D01*
X361726Y180633D01*
X362085Y181787D01*
X362514Y182917D01*
X363010Y184019D01*
X363572Y185090D01*
X364197Y186124D01*
X364884Y187119D01*
X365629Y188070D01*
X366431Y188975D01*
X367285Y189829D01*
X368190Y190631D01*
X369141Y191376D01*
X370136Y192063D01*
X371170Y192688D01*
X372241Y193250D01*
X373343Y193746D01*
X374473Y194175D01*
X375627Y194534D01*
X376800Y194823D01*
X377989Y195041D01*
X379189Y195187D01*
X380396Y195260D01*
X381604Y195260D01*
X382811Y195187D01*
X384011Y195041D01*
X385200Y194823D01*
X386373Y194534D01*
X387527Y194175D01*
X388657Y193746D01*
X389759Y193250D01*
X390830Y192688D01*
X391864Y192063D01*
X392859Y191376D01*
X393810Y190631D01*
X394715Y189829D01*
X395569Y188975D01*
X396371Y188070D01*
X397116Y187119D01*
X397803Y186124D01*
X398428Y185090D01*
X398990Y184019D01*
X399486Y182917D01*
X399915Y181787D01*
X400274Y180633D01*
X400563Y179460D01*
X400781Y178271D01*
X400927Y177071D01*
X401000Y175864D01*
X401000Y174656D01*
X338700Y174889D02*
X338635Y174149D01*
X338506Y173419D01*
X338314Y172702D01*
X338060Y172004D01*
X337747Y171331D01*
X337376Y170689D01*
X336950Y170081D01*
X336473Y169512D01*
X335948Y168987D01*
X335379Y168510D01*
X334771Y168084D01*
X334129Y167713D01*
X333456Y167400D01*
X332758Y167146D01*
X332042Y166954D01*
X331311Y166825D01*
X330571Y166760D01*
X329829Y166760D01*
X329089Y166825D01*
X328359Y166954D01*
X327642Y167146D01*
X326944Y167400D01*
X326271Y167713D01*
X325629Y168084D01*
X325021Y168510D01*
X324452Y168987D01*
X323927Y169512D01*
X323450Y170081D01*
X323024Y170689D01*
X322653Y171331D01*
X322340Y172004D01*
X322086Y172702D01*
X321894Y173419D01*
X321765Y174149D01*
X321700Y174889D01*
X321700Y175631D01*
X321765Y176371D01*
X321894Y177102D01*
X322086Y177818D01*
X322340Y178516D01*
X322653Y179189D01*
X323024Y179831D01*
X323450Y180439D01*
X323927Y181008D01*
X324452Y181533D01*
X325021Y182010D01*
X325629Y182436D01*
X326271Y182807D01*
X326944Y183120D01*
X327642Y183374D01*
X328359Y183566D01*
X329089Y183695D01*
X329829Y183760D01*
X330571Y183760D01*
X331311Y183695D01*
X332042Y183566D01*
X332758Y183374D01*
X333456Y183120D01*
X334129Y182807D01*
X334771Y182436D01*
X335379Y182010D01*
X335948Y181533D01*
X336473Y181008D01*
X336950Y180439D01*
X337376Y179831D01*
X337747Y179189D01*
X338060Y178516D01*
X338314Y177818D01*
X338506Y177102D01*
X338635Y176371D01*
X338700Y175631D01*
X338700Y174889D01*
X440300Y174889D02*
X440235Y174149D01*
X440106Y173419D01*
X439914Y172702D01*
X439660Y172004D01*
X439347Y171331D01*
X438976Y170689D01*
X438550Y170081D01*
X438073Y169512D01*
X437548Y168987D01*
X436979Y168510D01*
X436371Y168084D01*
X435729Y167713D01*
X435056Y167400D01*
X434358Y167146D01*
X433642Y166954D01*
X432911Y166825D01*
X432171Y166760D01*
X431429Y166760D01*
X430689Y166825D01*
X429959Y166954D01*
X429242Y167146D01*
X428544Y167400D01*
X427871Y167713D01*
X427229Y168084D01*
X426621Y168510D01*
X426052Y168987D01*
X425527Y169512D01*
X425050Y170081D01*
X424624Y170689D01*
X424253Y171331D01*
X423940Y172004D01*
X423686Y172702D01*
X423494Y173419D01*
X423365Y174149D01*
X423300Y174889D01*
X423300Y175631D01*
X423365Y176371D01*
X423494Y177102D01*
X423686Y177818D01*
X423940Y178516D01*
X424253Y179189D01*
X424624Y179831D01*
X425050Y180439D01*
X425527Y181008D01*
X426052Y181533D01*
X426621Y182010D01*
X427229Y182436D01*
X427871Y182807D01*
X428544Y183120D01*
X429242Y183374D01*
X429959Y183566D01*
X430689Y183695D01*
X431429Y183760D01*
X432171Y183760D01*
X432911Y183695D01*
X433642Y183566D01*
X434358Y183374D01*
X435056Y183120D01*
X435729Y182807D01*
X436371Y182436D01*
X436979Y182010D01*
X437548Y181533D01*
X438073Y181008D01*
X438550Y180439D01*
X438976Y179831D01*
X439347Y179189D01*
X439660Y178516D01*
X439914Y177818D01*
X440106Y177102D01*
X440235Y176371D01*
X440300Y175631D01*
X440300Y174889D01*
X277250Y104715D02*
X277172Y103629D01*
X277017Y102551D01*
X276786Y101486D01*
X276479Y100441D01*
X276098Y99420D01*
X275646Y98430D01*
X275124Y97473D01*
X274535Y96557D01*
X273882Y95685D01*
X273169Y94862D01*
X272398Y94092D01*
X271575Y93378D01*
X270703Y92725D01*
X269787Y92136D01*
X268831Y91614D01*
X267840Y91162D01*
X266819Y90781D01*
X265774Y90474D01*
X264709Y90243D01*
X263631Y90088D01*
X262545Y90010D01*
X261455Y90010D01*
X260369Y90088D01*
X259291Y90243D01*
X258226Y90474D01*
X257181Y90781D01*
X256160Y91162D01*
X255170Y91614D01*
X254213Y92136D01*
X253297Y92725D01*
X252425Y93378D01*
X251602Y94092D01*
X250832Y94862D01*
X250118Y95685D01*
X249465Y96557D01*
X248876Y97473D01*
X248354Y98430D01*
X247902Y99420D01*
X247521Y100441D01*
X247214Y101486D01*
X246983Y102551D01*
X246828Y103629D01*
X246750Y104715D01*
X246750Y105805D01*
X246828Y106891D01*
X246983Y107969D01*
X247214Y109034D01*
X247521Y110079D01*
X247902Y111100D01*
X248354Y112091D01*
X248876Y113047D01*
X249465Y113963D01*
X250118Y114835D01*
X250832Y115658D01*
X251602Y116429D01*
X252425Y117142D01*
X253297Y117795D01*
X254213Y118384D01*
X255170Y118906D01*
X256160Y119358D01*
X257181Y119739D01*
X258226Y120046D01*
X259291Y120277D01*
X260369Y120432D01*
X261455Y120510D01*
X262545Y120510D01*
X263631Y120432D01*
X264709Y120277D01*
X265774Y120046D01*
X266819Y119739D01*
X267840Y119358D01*
X268831Y118906D01*
X269787Y118384D01*
X270703Y117795D01*
X271575Y117142D01*
X272398Y116429D01*
X273169Y115658D01*
X273882Y114835D01*
X274535Y113963D01*
X275124Y113047D01*
X275646Y112091D01*
X276098Y111100D01*
X276479Y110079D01*
X276786Y109034D01*
X277017Y107969D01*
X277172Y106891D01*
X277250Y105805D01*
X277250Y104715D01*
X515250Y104715D02*
X515172Y103629D01*
X515017Y102551D01*
X514786Y101486D01*
X514479Y100441D01*
X514098Y99420D01*
X513646Y98430D01*
X513124Y97473D01*
X512535Y96557D01*
X511882Y95685D01*
X511169Y94862D01*
X510398Y94092D01*
X509575Y93378D01*
X508703Y92725D01*
X507787Y92136D01*
X506831Y91614D01*
X505840Y91162D01*
X504819Y90781D01*
X503774Y90474D01*
X502709Y90243D01*
X501631Y90088D01*
X500545Y90010D01*
X499455Y90010D01*
X498369Y90088D01*
X497291Y90243D01*
X496226Y90474D01*
X495181Y90781D01*
X494160Y91162D01*
X493170Y91614D01*
X492213Y92136D01*
X491297Y92725D01*
X490425Y93378D01*
X489602Y94092D01*
X488832Y94862D01*
X488118Y95685D01*
X487465Y96557D01*
X486876Y97473D01*
X486354Y98430D01*
X485902Y99420D01*
X485521Y100441D01*
X485214Y101486D01*
X484983Y102551D01*
X484828Y103629D01*
X484750Y104715D01*
X484750Y105805D01*
X484828Y106891D01*
X484983Y107969D01*
X485214Y109034D01*
X485521Y110079D01*
X485902Y111100D01*
X486354Y112091D01*
X486876Y113047D01*
X487465Y113963D01*
X488118Y114835D01*
X488832Y115658D01*
X489602Y116429D01*
X490425Y117142D01*
X491297Y117795D01*
X492213Y118384D01*
X493170Y118906D01*
X494160Y119358D01*
X495181Y119739D01*
X496226Y120046D01*
X497291Y120277D01*
X498369Y120432D01*
X499455Y120510D01*
X500545Y120510D01*
X501631Y120432D01*
X502709Y120277D01*
X503774Y120046D01*
X504819Y119739D01*
X505840Y119358D01*
X506831Y118906D01*
X507787Y118384D01*
X508703Y117795D01*
X509575Y117142D01*
X510398Y116429D01*
X511169Y115658D01*
X511882Y114835D01*
X512535Y113963D01*
X513124Y113047D01*
X513646Y112091D01*
X514098Y111100D01*
X514479Y110079D01*
X514786Y109034D01*
X515017Y107969D01*
X515172Y106891D01*
X515250Y105805D01*
X515250Y104715D01*
X282000Y257056D02*
X281927Y255849D01*
X281781Y254649D01*
X281563Y253460D01*
X281274Y252287D01*
X280915Y251133D01*
X280486Y250003D01*
X279990Y248901D01*
X279428Y247830D01*
X278803Y246796D01*
X278116Y245801D01*
X277371Y244850D01*
X276569Y243945D01*
X275715Y243091D01*
X274810Y242289D01*
X273859Y241544D01*
X272864Y240857D01*
X271830Y240232D01*
X270759Y239670D01*
X269657Y239174D01*
X268527Y238745D01*
X267373Y238386D01*
X266200Y238097D01*
X265011Y237879D01*
X263811Y237733D01*
X262604Y237660D01*
X261396Y237660D01*
X260189Y237733D01*
X258989Y237879D01*
X257800Y238097D01*
X256627Y238386D01*
X255473Y238745D01*
X254343Y239174D01*
X253241Y239670D01*
X252170Y240232D01*
X251136Y240857D01*
X250141Y241544D01*
X249190Y242289D01*
X248285Y243091D01*
X247431Y243945D01*
X246629Y244850D01*
X245884Y245801D01*
X245197Y246796D01*
X244572Y247830D01*
X244010Y248901D01*
X243514Y250003D01*
X243085Y251133D01*
X242726Y252287D01*
X242437Y253460D01*
X242219Y254649D01*
X242073Y255849D01*
X242000Y257056D01*
X242000Y258264D01*
X242073Y259471D01*
X242219Y260671D01*
X242437Y261860D01*
X242726Y263033D01*
X243085Y264187D01*
X243514Y265317D01*
X244010Y266419D01*
X244572Y267490D01*
X245197Y268524D01*
X245884Y269519D01*
X246629Y270470D01*
X247431Y271375D01*
X248285Y272229D01*
X249190Y273031D01*
X250141Y273776D01*
X251136Y274463D01*
X252170Y275088D01*
X253241Y275650D01*
X254343Y276146D01*
X255473Y276575D01*
X256627Y276934D01*
X257800Y277223D01*
X258989Y277441D01*
X260189Y277587D01*
X261396Y277660D01*
X262604Y277660D01*
X263811Y277587D01*
X265011Y277441D01*
X266200Y277223D01*
X267373Y276934D01*
X268527Y276575D01*
X269657Y276146D01*
X270759Y275650D01*
X271830Y275088D01*
X272864Y274463D01*
X273859Y273776D01*
X274810Y273031D01*
X275715Y272229D01*
X276569Y271375D01*
X277371Y270470D01*
X278116Y269519D01*
X278803Y268524D01*
X279428Y267490D01*
X279990Y266419D01*
X280486Y265317D01*
X280915Y264187D01*
X281274Y263033D01*
X281563Y261860D01*
X281781Y260671D01*
X281927Y259471D01*
X282000Y258264D01*
X282000Y257056D01*
X520000Y257056D02*
X519927Y255849D01*
X519781Y254649D01*
X519563Y253460D01*
X519274Y252287D01*
X518915Y251133D01*
X518486Y250003D01*
X517990Y248901D01*
X517428Y247830D01*
X516803Y246796D01*
X516116Y245801D01*
X515371Y244850D01*
X514569Y243945D01*
X513715Y243091D01*
X512810Y242289D01*
X511859Y241544D01*
X510864Y240857D01*
X509830Y240232D01*
X508759Y239670D01*
X507657Y239174D01*
X506527Y238745D01*
X505373Y238386D01*
X504200Y238097D01*
X503011Y237879D01*
X501811Y237733D01*
X500604Y237660D01*
X499396Y237660D01*
X498189Y237733D01*
X496989Y237879D01*
X495800Y238097D01*
X494627Y238386D01*
X493473Y238745D01*
X492343Y239174D01*
X491241Y239670D01*
X490170Y240232D01*
X489136Y240857D01*
X488141Y241544D01*
X487190Y242289D01*
X486285Y243091D01*
X485431Y243945D01*
X484629Y244850D01*
X483884Y245801D01*
X483197Y246796D01*
X482572Y247830D01*
X482010Y248901D01*
X481514Y250003D01*
X481085Y251133D01*
X480726Y252287D01*
X480437Y253460D01*
X480219Y254649D01*
X480073Y255849D01*
X480000Y257056D01*
X480000Y258264D01*
X480073Y259471D01*
X480219Y260671D01*
X480437Y261860D01*
X480726Y263033D01*
X481085Y264187D01*
X481514Y265317D01*
X482010Y266419D01*
X482572Y267490D01*
X483197Y268524D01*
X483884Y269519D01*
X484629Y270470D01*
X485431Y271375D01*
X486285Y272229D01*
X487190Y273031D01*
X488141Y273776D01*
X489136Y274463D01*
X490170Y275088D01*
X491241Y275650D01*
X492343Y276146D01*
X493473Y276575D01*
X494627Y276934D01*
X495800Y277223D01*
X496989Y277441D01*
X498189Y277587D01*
X499396Y277660D01*
X500604Y277660D01*
X501811Y277587D01*
X503011Y277441D01*
X504200Y277223D01*
X505373Y276934D01*
X506527Y276575D01*
X507657Y276146D01*
X508759Y275650D01*
X509830Y275088D01*
X510864Y274463D01*
X511859Y273776D01*
X512810Y273031D01*
X513715Y272229D01*
X514569Y271375D01*
X515371Y270470D01*
X516116Y269519D01*
X516803Y268524D01*
X517428Y267490D01*
X517990Y266419D01*
X518486Y265317D01*
X518915Y264187D01*
X519274Y263033D01*
X519563Y261860D01*
X519781Y260671D01*
X519927Y259471D01*
X520000Y258264D01*
X520000Y257056D01*
X876400Y650836D02*
X876327Y649629D01*
X876181Y648429D01*
X875963Y647240D01*
X875674Y646067D01*
X875315Y644913D01*
X874886Y643783D01*
X874390Y642681D01*
X873828Y641610D01*
X873203Y640576D01*
X872516Y639581D01*
X871771Y638630D01*
X870969Y637725D01*
X870115Y636871D01*
X869210Y636069D01*
X868259Y635324D01*
X867264Y634637D01*
X866230Y634012D01*
X865159Y633450D01*
X864057Y632954D01*
X862927Y632525D01*
X861773Y632166D01*
X860600Y631877D01*
X859411Y631659D01*
X858211Y631513D01*
X857004Y631440D01*
X855796Y631440D01*
X854589Y631513D01*
X853389Y631659D01*
X852200Y631877D01*
X851027Y632166D01*
X849873Y632525D01*
X848743Y632954D01*
X847641Y633450D01*
X846570Y634012D01*
X845536Y634637D01*
X844541Y635324D01*
X843590Y636069D01*
X842685Y636871D01*
X841831Y637725D01*
X841029Y638630D01*
X840284Y639581D01*
X839597Y640576D01*
X838972Y641610D01*
X838410Y642681D01*
X837914Y643783D01*
X837485Y644913D01*
X837126Y646067D01*
X836837Y647240D01*
X836619Y648429D01*
X836473Y649629D01*
X836400Y650836D01*
X836400Y652044D01*
X836473Y653251D01*
X836619Y654451D01*
X836837Y655640D01*
X837126Y656813D01*
X837485Y657967D01*
X837914Y659097D01*
X838410Y660199D01*
X838972Y661270D01*
X839597Y662304D01*
X840284Y663299D01*
X841029Y664250D01*
X841831Y665155D01*
X842685Y666009D01*
X843590Y666811D01*
X844541Y667556D01*
X845536Y668243D01*
X846570Y668868D01*
X847641Y669430D01*
X848743Y669926D01*
X849873Y670355D01*
X851027Y670714D01*
X852200Y671003D01*
X853389Y671221D01*
X854589Y671367D01*
X855796Y671440D01*
X857004Y671440D01*
X858211Y671367D01*
X859411Y671221D01*
X860600Y671003D01*
X861773Y670714D01*
X862927Y670355D01*
X864057Y669926D01*
X865159Y669430D01*
X866230Y668868D01*
X867264Y668243D01*
X868259Y667556D01*
X869210Y666811D01*
X870115Y666009D01*
X870969Y665155D01*
X871771Y664250D01*
X872516Y663299D01*
X873203Y662304D01*
X873828Y661270D01*
X874390Y660199D01*
X874886Y659097D01*
X875315Y657967D01*
X875674Y656813D01*
X875963Y655640D01*
X876181Y654451D01*
X876327Y653251D01*
X876400Y652044D01*
X876400Y650836D01*
X814100Y651069D02*
X814035Y650329D01*
X813906Y649599D01*
X813714Y648882D01*
X813460Y648184D01*
X813147Y647511D01*
X812776Y646869D01*
X812350Y646261D01*
X811873Y645692D01*
X811348Y645167D01*
X810779Y644690D01*
X810171Y644264D01*
X809529Y643893D01*
X808856Y643580D01*
X808158Y643326D01*
X807442Y643134D01*
X806711Y643005D01*
X805971Y642940D01*
X805229Y642940D01*
X804489Y643005D01*
X803759Y643134D01*
X803042Y643326D01*
X802344Y643580D01*
X801671Y643893D01*
X801029Y644264D01*
X800421Y644690D01*
X799852Y645167D01*
X799327Y645692D01*
X798850Y646261D01*
X798424Y646869D01*
X798053Y647511D01*
X797740Y648184D01*
X797486Y648882D01*
X797294Y649599D01*
X797165Y650329D01*
X797100Y651069D01*
X797100Y651811D01*
X797165Y652551D01*
X797294Y653282D01*
X797486Y653998D01*
X797740Y654696D01*
X798053Y655369D01*
X798424Y656011D01*
X798850Y656619D01*
X799327Y657188D01*
X799852Y657713D01*
X800421Y658190D01*
X801029Y658616D01*
X801671Y658987D01*
X802344Y659300D01*
X803042Y659554D01*
X803759Y659746D01*
X804489Y659875D01*
X805229Y659940D01*
X805971Y659940D01*
X806711Y659875D01*
X807442Y659746D01*
X808158Y659554D01*
X808856Y659300D01*
X809529Y658987D01*
X810171Y658616D01*
X810779Y658190D01*
X811348Y657713D01*
X811873Y657188D01*
X812350Y656619D01*
X812776Y656011D01*
X813147Y655369D01*
X813460Y654696D01*
X813714Y653998D01*
X813906Y653282D01*
X814035Y652551D01*
X814100Y651811D01*
X814100Y651069D01*
X915700Y651069D02*
X915635Y650329D01*
X915506Y649599D01*
X915314Y648882D01*
X915060Y648184D01*
X914747Y647511D01*
X914376Y646869D01*
X913950Y646261D01*
X913473Y645692D01*
X912948Y645167D01*
X912379Y644690D01*
X911771Y644264D01*
X911129Y643893D01*
X910456Y643580D01*
X909758Y643326D01*
X909042Y643134D01*
X908311Y643005D01*
X907571Y642940D01*
X906829Y642940D01*
X906089Y643005D01*
X905359Y643134D01*
X904642Y643326D01*
X903944Y643580D01*
X903271Y643893D01*
X902629Y644264D01*
X902021Y644690D01*
X901452Y645167D01*
X900927Y645692D01*
X900450Y646261D01*
X900024Y646869D01*
X899653Y647511D01*
X899340Y648184D01*
X899086Y648882D01*
X898894Y649599D01*
X898765Y650329D01*
X898700Y651069D01*
X898700Y651811D01*
X898765Y652551D01*
X898894Y653282D01*
X899086Y653998D01*
X899340Y654696D01*
X899653Y655369D01*
X900024Y656011D01*
X900450Y656619D01*
X900927Y657188D01*
X901452Y657713D01*
X902021Y658190D01*
X902629Y658616D01*
X903271Y658987D01*
X903944Y659300D01*
X904642Y659554D01*
X905359Y659746D01*
X906089Y659875D01*
X906829Y659940D01*
X907571Y659940D01*
X908311Y659875D01*
X909042Y659746D01*
X909758Y659554D01*
X910456Y659300D01*
X911129Y658987D01*
X911771Y658616D01*
X912379Y658190D01*
X912948Y657713D01*
X913473Y657188D01*
X913950Y656619D01*
X914376Y656011D01*
X914747Y655369D01*
X915060Y654696D01*
X915314Y653998D01*
X915506Y653282D01*
X915635Y652551D01*
X915700Y651811D01*
X915700Y651069D01*
X941650Y531895D02*
X941572Y530809D01*
X941417Y529731D01*
X941186Y528666D01*
X940879Y527621D01*
X940498Y526600D01*
X940046Y525610D01*
X939524Y524653D01*
X938935Y523737D01*
X938282Y522865D01*
X937569Y522042D01*
X936798Y521272D01*
X935975Y520558D01*
X935103Y519905D01*
X934187Y519316D01*
X933231Y518794D01*
X932240Y518342D01*
X931219Y517961D01*
X930174Y517654D01*
X929109Y517423D01*
X928031Y517268D01*
X926945Y517190D01*
X925855Y517190D01*
X924769Y517268D01*
X923691Y517423D01*
X922626Y517654D01*
X921581Y517961D01*
X920560Y518342D01*
X919570Y518794D01*
X918613Y519316D01*
X917697Y519905D01*
X916825Y520558D01*
X916002Y521272D01*
X915232Y522042D01*
X914518Y522865D01*
X913865Y523737D01*
X913276Y524653D01*
X912754Y525610D01*
X912302Y526600D01*
X911921Y527621D01*
X911614Y528666D01*
X911383Y529731D01*
X911228Y530809D01*
X911150Y531895D01*
X911150Y532985D01*
X911228Y534071D01*
X911383Y535149D01*
X911614Y536214D01*
X911921Y537259D01*
X912302Y538280D01*
X912754Y539271D01*
X913276Y540227D01*
X913865Y541143D01*
X914518Y542015D01*
X915232Y542838D01*
X916002Y543609D01*
X916825Y544322D01*
X917697Y544975D01*
X918613Y545564D01*
X919570Y546086D01*
X920560Y546538D01*
X921581Y546919D01*
X922626Y547226D01*
X923691Y547457D01*
X924769Y547612D01*
X925855Y547690D01*
X926945Y547690D01*
X928031Y547612D01*
X929109Y547457D01*
X930174Y547226D01*
X931219Y546919D01*
X932240Y546538D01*
X933231Y546086D01*
X934187Y545564D01*
X935103Y544975D01*
X935975Y544322D01*
X936798Y543609D01*
X937569Y542838D01*
X938282Y542015D01*
X938935Y541143D01*
X939524Y540227D01*
X940046Y539271D01*
X940498Y538280D01*
X940879Y537259D01*
X941186Y536214D01*
X941417Y535149D01*
X941572Y534071D01*
X941650Y532985D01*
X941650Y531895D01*
X941650Y769895D02*
X941572Y768809D01*
X941417Y767731D01*
X941186Y766666D01*
X940879Y765621D01*
X940498Y764600D01*
X940046Y763610D01*
X939524Y762653D01*
X938935Y761737D01*
X938282Y760865D01*
X937569Y760042D01*
X936798Y759272D01*
X935975Y758558D01*
X935103Y757905D01*
X934187Y757316D01*
X933231Y756794D01*
X932240Y756342D01*
X931219Y755961D01*
X930174Y755654D01*
X929109Y755423D01*
X928031Y755268D01*
X926945Y755190D01*
X925855Y755190D01*
X924769Y755268D01*
X923691Y755423D01*
X922626Y755654D01*
X921581Y755961D01*
X920560Y756342D01*
X919570Y756794D01*
X918613Y757316D01*
X917697Y757905D01*
X916825Y758558D01*
X916002Y759272D01*
X915232Y760042D01*
X914518Y760865D01*
X913865Y761737D01*
X913276Y762653D01*
X912754Y763610D01*
X912302Y764600D01*
X911921Y765621D01*
X911614Y766666D01*
X911383Y767731D01*
X911228Y768809D01*
X911150Y769895D01*
X911150Y770985D01*
X911228Y772071D01*
X911383Y773149D01*
X911614Y774214D01*
X911921Y775259D01*
X912302Y776280D01*
X912754Y777271D01*
X913276Y778227D01*
X913865Y779143D01*
X914518Y780015D01*
X915232Y780838D01*
X916002Y781609D01*
X916825Y782322D01*
X917697Y782975D01*
X918613Y783564D01*
X919570Y784086D01*
X920560Y784538D01*
X921581Y784919D01*
X922626Y785226D01*
X923691Y785457D01*
X924769Y785612D01*
X925855Y785690D01*
X926945Y785690D01*
X928031Y785612D01*
X929109Y785457D01*
X930174Y785226D01*
X931219Y784919D01*
X932240Y784538D01*
X933231Y784086D01*
X934187Y783564D01*
X935103Y782975D01*
X935975Y782322D01*
X936798Y781609D01*
X937569Y780838D01*
X938282Y780015D01*
X938935Y779143D01*
X939524Y778227D01*
X940046Y777271D01*
X940498Y776280D01*
X940879Y775259D01*
X941186Y774214D01*
X941417Y773149D01*
X941572Y772071D01*
X941650Y770985D01*
X941650Y769895D01*
X794000Y531836D02*
X793927Y530629D01*
X793781Y529429D01*
X793563Y528240D01*
X793274Y527067D01*
X792915Y525913D01*
X792486Y524783D01*
X791990Y523681D01*
X791428Y522610D01*
X790803Y521576D01*
X790116Y520581D01*
X789371Y519630D01*
X788569Y518725D01*
X787715Y517871D01*
X786810Y517069D01*
X785859Y516324D01*
X784864Y515637D01*
X783830Y515012D01*
X782759Y514450D01*
X781657Y513954D01*
X780527Y513525D01*
X779373Y513166D01*
X778200Y512877D01*
X777011Y512659D01*
X775811Y512513D01*
X774604Y512440D01*
X773396Y512440D01*
X772189Y512513D01*
X770989Y512659D01*
X769800Y512877D01*
X768627Y513166D01*
X767473Y513525D01*
X766343Y513954D01*
X765241Y514450D01*
X764170Y515012D01*
X763136Y515637D01*
X762141Y516324D01*
X761190Y517069D01*
X760285Y517871D01*
X759431Y518725D01*
X758629Y519630D01*
X757884Y520581D01*
X757197Y521576D01*
X756572Y522610D01*
X756010Y523681D01*
X755514Y524783D01*
X755085Y525913D01*
X754726Y527067D01*
X754437Y528240D01*
X754219Y529429D01*
X754073Y530629D01*
X754000Y531836D01*
X754000Y533044D01*
X754073Y534251D01*
X754219Y535451D01*
X754437Y536640D01*
X754726Y537813D01*
X755085Y538967D01*
X755514Y540097D01*
X756010Y541199D01*
X756572Y542270D01*
X757197Y543304D01*
X757884Y544299D01*
X758629Y545250D01*
X759431Y546155D01*
X760285Y547009D01*
X761190Y547811D01*
X762141Y548556D01*
X763136Y549243D01*
X764170Y549868D01*
X765241Y550430D01*
X766343Y550926D01*
X767473Y551355D01*
X768627Y551714D01*
X769800Y552003D01*
X770989Y552221D01*
X772189Y552367D01*
X773396Y552440D01*
X774604Y552440D01*
X775811Y552367D01*
X777011Y552221D01*
X778200Y552003D01*
X779373Y551714D01*
X780527Y551355D01*
X781657Y550926D01*
X782759Y550430D01*
X783830Y549868D01*
X784864Y549243D01*
X785859Y548556D01*
X786810Y547811D01*
X787715Y547009D01*
X788569Y546155D01*
X789371Y545250D01*
X790116Y544299D01*
X790803Y543304D01*
X791428Y542270D01*
X791990Y541199D01*
X792486Y540097D01*
X792915Y538967D01*
X793274Y537813D01*
X793563Y536640D01*
X793781Y535451D01*
X793927Y534251D01*
X794000Y533044D01*
X794000Y531836D01*
X794000Y769836D02*
X793927Y768629D01*
X793781Y767429D01*
X793563Y766240D01*
X793274Y765067D01*
X792915Y763913D01*
X792486Y762783D01*
X791990Y761681D01*
X791428Y760610D01*
X790803Y759576D01*
X790116Y758581D01*
X789371Y757630D01*
X788569Y756725D01*
X787715Y755871D01*
X786810Y755069D01*
X785859Y754324D01*
X784864Y753637D01*
X783830Y753012D01*
X782759Y752450D01*
X781657Y751954D01*
X780527Y751525D01*
X779373Y751166D01*
X778200Y750877D01*
X777011Y750659D01*
X775811Y750513D01*
X774604Y750440D01*
X773396Y750440D01*
X772189Y750513D01*
X770989Y750659D01*
X769800Y750877D01*
X768627Y751166D01*
X767473Y751525D01*
X766343Y751954D01*
X765241Y752450D01*
X764170Y753012D01*
X763136Y753637D01*
X762141Y754324D01*
X761190Y755069D01*
X760285Y755871D01*
X759431Y756725D01*
X758629Y757630D01*
X757884Y758581D01*
X757197Y759576D01*
X756572Y760610D01*
X756010Y761681D01*
X755514Y762783D01*
X755085Y763913D01*
X754726Y765067D01*
X754437Y766240D01*
X754219Y767429D01*
X754073Y768629D01*
X754000Y769836D01*
X754000Y771044D01*
X754073Y772251D01*
X754219Y773451D01*
X754437Y774640D01*
X754726Y775813D01*
X755085Y776967D01*
X755514Y778097D01*
X756010Y779199D01*
X756572Y780270D01*
X757197Y781304D01*
X757884Y782299D01*
X758629Y783250D01*
X759431Y784155D01*
X760285Y785009D01*
X761190Y785811D01*
X762141Y786556D01*
X763136Y787243D01*
X764170Y787868D01*
X765241Y788430D01*
X766343Y788926D01*
X767473Y789355D01*
X768627Y789714D01*
X769800Y790003D01*
X770989Y790221D01*
X772189Y790367D01*
X773396Y790440D01*
X774604Y790440D01*
X775811Y790367D01*
X777011Y790221D01*
X778200Y790003D01*
X779373Y789714D01*
X780527Y789355D01*
X781657Y788926D01*
X782759Y788430D01*
X783830Y787868D01*
X784864Y787243D01*
X785859Y786556D01*
X786810Y785811D01*
X787715Y785009D01*
X788569Y784155D01*
X789371Y783250D01*
X790116Y782299D01*
X790803Y781304D01*
X791428Y780270D01*
X791990Y779199D01*
X792486Y778097D01*
X792915Y776967D01*
X793274Y775813D01*
X793563Y774640D01*
X793781Y773451D01*
X793927Y772251D01*
X794000Y771044D01*
X794000Y769836D01*
X495530Y936456D02*
X495457Y935249D01*
X495311Y934049D01*
X495093Y932860D01*
X494804Y931687D01*
X494445Y930533D01*
X494016Y929403D01*
X493520Y928301D01*
X492958Y927230D01*
X492333Y926196D01*
X491646Y925201D01*
X490901Y924250D01*
X490099Y923345D01*
X489245Y922491D01*
X488340Y921689D01*
X487389Y920944D01*
X486394Y920257D01*
X485360Y919632D01*
X484289Y919070D01*
X483187Y918574D01*
X482057Y918145D01*
X480903Y917786D01*
X479730Y917497D01*
X478541Y917279D01*
X477341Y917133D01*
X476134Y917060D01*
X474926Y917060D01*
X473719Y917133D01*
X472519Y917279D01*
X471330Y917497D01*
X470157Y917786D01*
X469003Y918145D01*
X467873Y918574D01*
X466771Y919070D01*
X465700Y919632D01*
X464666Y920257D01*
X463671Y920944D01*
X462720Y921689D01*
X461815Y922491D01*
X460961Y923345D01*
X460159Y924250D01*
X459414Y925201D01*
X458727Y926196D01*
X458102Y927230D01*
X457540Y928301D01*
X457044Y929403D01*
X456615Y930533D01*
X456256Y931687D01*
X455967Y932860D01*
X455749Y934049D01*
X455603Y935249D01*
X455530Y936456D01*
X455530Y937664D01*
X455603Y938871D01*
X455749Y940071D01*
X455967Y941260D01*
X456256Y942433D01*
X456615Y943587D01*
X457044Y944717D01*
X457540Y945819D01*
X458102Y946890D01*
X458727Y947924D01*
X459414Y948919D01*
X460159Y949870D01*
X460961Y950775D01*
X461815Y951629D01*
X462720Y952431D01*
X463671Y953176D01*
X464666Y953863D01*
X465700Y954488D01*
X466771Y955050D01*
X467873Y955546D01*
X469003Y955975D01*
X470157Y956334D01*
X471330Y956623D01*
X472519Y956841D01*
X473719Y956987D01*
X474926Y957060D01*
X476134Y957060D01*
X477341Y956987D01*
X478541Y956841D01*
X479730Y956623D01*
X480903Y956334D01*
X482057Y955975D01*
X483187Y955546D01*
X484289Y955050D01*
X485360Y954488D01*
X486394Y953863D01*
X487389Y953176D01*
X488340Y952431D01*
X489245Y951629D01*
X490099Y950775D01*
X490901Y949870D01*
X491646Y948919D01*
X492333Y947924D01*
X492958Y946890D01*
X493520Y945819D01*
X494016Y944717D01*
X494445Y943587D01*
X494804Y942433D01*
X495093Y941260D01*
X495311Y940071D01*
X495457Y938871D01*
X495530Y937664D01*
X495530Y936456D01*
X433230Y936689D02*
X433165Y935949D01*
X433036Y935219D01*
X432844Y934502D01*
X432590Y933804D01*
X432277Y933131D01*
X431906Y932489D01*
X431480Y931881D01*
X431003Y931312D01*
X430478Y930787D01*
X429909Y930310D01*
X429301Y929884D01*
X428659Y929513D01*
X427986Y929200D01*
X427288Y928946D01*
X426572Y928754D01*
X425841Y928625D01*
X425101Y928560D01*
X424359Y928560D01*
X423619Y928625D01*
X422889Y928754D01*
X422172Y928946D01*
X421474Y929200D01*
X420801Y929513D01*
X420159Y929884D01*
X419551Y930310D01*
X418982Y930787D01*
X418457Y931312D01*
X417980Y931881D01*
X417554Y932489D01*
X417183Y933131D01*
X416870Y933804D01*
X416616Y934502D01*
X416424Y935219D01*
X416295Y935949D01*
X416230Y936689D01*
X416230Y937431D01*
X416295Y938171D01*
X416424Y938902D01*
X416616Y939618D01*
X416870Y940316D01*
X417183Y940989D01*
X417554Y941631D01*
X417980Y942239D01*
X418457Y942808D01*
X418982Y943333D01*
X419551Y943810D01*
X420159Y944236D01*
X420801Y944607D01*
X421474Y944920D01*
X422172Y945174D01*
X422889Y945366D01*
X423619Y945495D01*
X424359Y945560D01*
X425101Y945560D01*
X425841Y945495D01*
X426572Y945366D01*
X427288Y945174D01*
X427986Y944920D01*
X428659Y944607D01*
X429301Y944236D01*
X429909Y943810D01*
X430478Y943333D01*
X431003Y942808D01*
X431480Y942239D01*
X431906Y941631D01*
X432277Y940989D01*
X432590Y940316D01*
X432844Y939618D01*
X433036Y938902D01*
X433165Y938171D01*
X433230Y937431D01*
X433230Y936689D01*
X534830Y936689D02*
X534765Y935949D01*
X534636Y935219D01*
X534444Y934502D01*
X534190Y933804D01*
X533877Y933131D01*
X533506Y932489D01*
X533080Y931881D01*
X532603Y931312D01*
X532078Y930787D01*
X531509Y930310D01*
X530901Y929884D01*
X530259Y929513D01*
X529586Y929200D01*
X528888Y928946D01*
X528172Y928754D01*
X527441Y928625D01*
X526701Y928560D01*
X525959Y928560D01*
X525219Y928625D01*
X524489Y928754D01*
X523772Y928946D01*
X523074Y929200D01*
X522401Y929513D01*
X521759Y929884D01*
X521151Y930310D01*
X520582Y930787D01*
X520057Y931312D01*
X519580Y931881D01*
X519154Y932489D01*
X518783Y933131D01*
X518470Y933804D01*
X518216Y934502D01*
X518024Y935219D01*
X517895Y935949D01*
X517830Y936689D01*
X517830Y937431D01*
X517895Y938171D01*
X518024Y938902D01*
X518216Y939618D01*
X518470Y940316D01*
X518783Y940989D01*
X519154Y941631D01*
X519580Y942239D01*
X520057Y942808D01*
X520582Y943333D01*
X521151Y943810D01*
X521759Y944236D01*
X522401Y944607D01*
X523074Y944920D01*
X523772Y945174D01*
X524489Y945366D01*
X525219Y945495D01*
X525959Y945560D01*
X526701Y945560D01*
X527441Y945495D01*
X528172Y945366D01*
X528888Y945174D01*
X529586Y944920D01*
X530259Y944607D01*
X530901Y944236D01*
X531509Y943810D01*
X532078Y943333D01*
X532603Y942808D01*
X533080Y942239D01*
X533506Y941631D01*
X533877Y940989D01*
X534190Y940316D01*
X534444Y939618D01*
X534636Y938902D01*
X534765Y938171D01*
X534830Y937431D01*
X534830Y936689D01*
X685670Y936456D02*
X685597Y935249D01*
X685451Y934049D01*
X685233Y932860D01*
X684944Y931687D01*
X684585Y930533D01*
X684156Y929403D01*
X683660Y928301D01*
X683098Y927230D01*
X682473Y926196D01*
X681786Y925201D01*
X681041Y924250D01*
X680239Y923345D01*
X679385Y922491D01*
X678480Y921689D01*
X677529Y920944D01*
X676534Y920257D01*
X675500Y919632D01*
X674429Y919070D01*
X673327Y918574D01*
X672197Y918145D01*
X671043Y917786D01*
X669870Y917497D01*
X668681Y917279D01*
X667481Y917133D01*
X666274Y917060D01*
X665066Y917060D01*
X663859Y917133D01*
X662659Y917279D01*
X661470Y917497D01*
X660297Y917786D01*
X659143Y918145D01*
X658013Y918574D01*
X656911Y919070D01*
X655840Y919632D01*
X654806Y920257D01*
X653811Y920944D01*
X652860Y921689D01*
X651955Y922491D01*
X651101Y923345D01*
X650299Y924250D01*
X649554Y925201D01*
X648867Y926196D01*
X648242Y927230D01*
X647680Y928301D01*
X647184Y929403D01*
X646755Y930533D01*
X646396Y931687D01*
X646107Y932860D01*
X645889Y934049D01*
X645743Y935249D01*
X645670Y936456D01*
X645670Y937664D01*
X645743Y938871D01*
X645889Y940071D01*
X646107Y941260D01*
X646396Y942433D01*
X646755Y943587D01*
X647184Y944717D01*
X647680Y945819D01*
X648242Y946890D01*
X648867Y947924D01*
X649554Y948919D01*
X650299Y949870D01*
X651101Y950775D01*
X651955Y951629D01*
X652860Y952431D01*
X653811Y953176D01*
X654806Y953863D01*
X655840Y954488D01*
X656911Y955050D01*
X658013Y955546D01*
X659143Y955975D01*
X660297Y956334D01*
X661470Y956623D01*
X662659Y956841D01*
X663859Y956987D01*
X665066Y957060D01*
X666274Y957060D01*
X667481Y956987D01*
X668681Y956841D01*
X669870Y956623D01*
X671043Y956334D01*
X672197Y955975D01*
X673327Y955546D01*
X674429Y955050D01*
X675500Y954488D01*
X676534Y953863D01*
X677529Y953176D01*
X678480Y952431D01*
X679385Y951629D01*
X680239Y950775D01*
X681041Y949870D01*
X681786Y948919D01*
X682473Y947924D01*
X683098Y946890D01*
X683660Y945819D01*
X684156Y944717D01*
X684585Y943587D01*
X684944Y942433D01*
X685233Y941260D01*
X685451Y940071D01*
X685597Y938871D01*
X685670Y937664D01*
X685670Y936456D01*
X623370Y936689D02*
X623305Y935949D01*
X623176Y935219D01*
X622984Y934502D01*
X622730Y933804D01*
X622417Y933131D01*
X622046Y932489D01*
X621620Y931881D01*
X621143Y931312D01*
X620618Y930787D01*
X620049Y930310D01*
X619441Y929884D01*
X618799Y929513D01*
X618126Y929200D01*
X617428Y928946D01*
X616712Y928754D01*
X615981Y928625D01*
X615241Y928560D01*
X614499Y928560D01*
X613759Y928625D01*
X613029Y928754D01*
X612312Y928946D01*
X611614Y929200D01*
X610941Y929513D01*
X610299Y929884D01*
X609691Y930310D01*
X609122Y930787D01*
X608597Y931312D01*
X608120Y931881D01*
X607694Y932489D01*
X607323Y933131D01*
X607010Y933804D01*
X606756Y934502D01*
X606564Y935219D01*
X606435Y935949D01*
X606370Y936689D01*
X606370Y937431D01*
X606435Y938171D01*
X606564Y938902D01*
X606756Y939618D01*
X607010Y940316D01*
X607323Y940989D01*
X607694Y941631D01*
X608120Y942239D01*
X608597Y942808D01*
X609122Y943333D01*
X609691Y943810D01*
X610299Y944236D01*
X610941Y944607D01*
X611614Y944920D01*
X612312Y945174D01*
X613029Y945366D01*
X613759Y945495D01*
X614499Y945560D01*
X615241Y945560D01*
X615981Y945495D01*
X616712Y945366D01*
X617428Y945174D01*
X618126Y944920D01*
X618799Y944607D01*
X619441Y944236D01*
X620049Y943810D01*
X620618Y943333D01*
X621143Y942808D01*
X621620Y942239D01*
X622046Y941631D01*
X622417Y940989D01*
X622730Y940316D01*
X622984Y939618D01*
X623176Y938902D01*
X623305Y938171D01*
X623370Y937431D01*
X623370Y936689D01*
X724970Y936689D02*
X724905Y935949D01*
X724776Y935219D01*
X724584Y934502D01*
X724330Y933804D01*
X724017Y933131D01*
X723646Y932489D01*
X723220Y931881D01*
X722743Y931312D01*
X722218Y930787D01*
X721649Y930310D01*
X721041Y929884D01*
X720399Y929513D01*
X719726Y929200D01*
X719028Y928946D01*
X718312Y928754D01*
X717581Y928625D01*
X716841Y928560D01*
X716099Y928560D01*
X715359Y928625D01*
X714629Y928754D01*
X713912Y928946D01*
X713214Y929200D01*
X712541Y929513D01*
X711899Y929884D01*
X711291Y930310D01*
X710722Y930787D01*
X710197Y931312D01*
X709720Y931881D01*
X709294Y932489D01*
X708923Y933131D01*
X708610Y933804D01*
X708356Y934502D01*
X708164Y935219D01*
X708035Y935949D01*
X707970Y936689D01*
X707970Y937431D01*
X708035Y938171D01*
X708164Y938902D01*
X708356Y939618D01*
X708610Y940316D01*
X708923Y940989D01*
X709294Y941631D01*
X709720Y942239D01*
X710197Y942808D01*
X710722Y943333D01*
X711291Y943810D01*
X711899Y944236D01*
X712541Y944607D01*
X713214Y944920D01*
X713912Y945174D01*
X714629Y945366D01*
X715359Y945495D01*
X716099Y945560D01*
X716841Y945560D01*
X717581Y945495D01*
X718312Y945366D01*
X719028Y945174D01*
X719726Y944920D01*
X720399Y944607D01*
X721041Y944236D01*
X721649Y943810D01*
X722218Y943333D01*
X722743Y942808D01*
X723220Y942239D01*
X723646Y941631D01*
X724017Y940989D01*
X724330Y940316D01*
X724584Y939618D01*
X724776Y938902D01*
X724905Y938171D01*
X724970Y937431D01*
X724970Y936689D01*
X304540Y746456D02*
X304467Y745249D01*
X304321Y744049D01*
X304103Y742860D01*
X303814Y741687D01*
X303455Y740533D01*
X303026Y739403D01*
X302530Y738301D01*
X301968Y737230D01*
X301343Y736196D01*
X300656Y735201D01*
X299911Y734250D01*
X299109Y733345D01*
X298255Y732491D01*
X297350Y731689D01*
X296399Y730944D01*
X295404Y730257D01*
X294370Y729632D01*
X293299Y729070D01*
X292197Y728574D01*
X291067Y728145D01*
X289913Y727786D01*
X288740Y727497D01*
X287551Y727279D01*
X286351Y727133D01*
X285144Y727060D01*
X283936Y727060D01*
X282729Y727133D01*
X281529Y727279D01*
X280340Y727497D01*
X279167Y727786D01*
X278013Y728145D01*
X276883Y728574D01*
X275781Y729070D01*
X274710Y729632D01*
X273676Y730257D01*
X272681Y730944D01*
X271730Y731689D01*
X270825Y732491D01*
X269971Y733345D01*
X269169Y734250D01*
X268424Y735201D01*
X267737Y736196D01*
X267112Y737230D01*
X266550Y738301D01*
X266054Y739403D01*
X265625Y740533D01*
X265266Y741687D01*
X264977Y742860D01*
X264759Y744049D01*
X264613Y745249D01*
X264540Y746456D01*
X264540Y747664D01*
X264613Y748871D01*
X264759Y750071D01*
X264977Y751260D01*
X265266Y752433D01*
X265625Y753587D01*
X266054Y754717D01*
X266550Y755819D01*
X267112Y756890D01*
X267737Y757924D01*
X268424Y758919D01*
X269169Y759870D01*
X269971Y760775D01*
X270825Y761629D01*
X271730Y762431D01*
X272681Y763176D01*
X273676Y763863D01*
X274710Y764488D01*
X275781Y765050D01*
X276883Y765546D01*
X278013Y765975D01*
X279167Y766334D01*
X280340Y766623D01*
X281529Y766841D01*
X282729Y766987D01*
X283936Y767060D01*
X285144Y767060D01*
X286351Y766987D01*
X287551Y766841D01*
X288740Y766623D01*
X289913Y766334D01*
X291067Y765975D01*
X292197Y765546D01*
X293299Y765050D01*
X294370Y764488D01*
X295404Y763863D01*
X296399Y763176D01*
X297350Y762431D01*
X298255Y761629D01*
X299109Y760775D01*
X299911Y759870D01*
X300656Y758919D01*
X301343Y757924D01*
X301968Y756890D01*
X302530Y755819D01*
X303026Y754717D01*
X303455Y753587D01*
X303814Y752433D01*
X304103Y751260D01*
X304321Y750071D01*
X304467Y748871D01*
X304540Y747664D01*
X304540Y746456D01*
X242240Y746689D02*
X242175Y745949D01*
X242046Y745219D01*
X241854Y744502D01*
X241600Y743804D01*
X241287Y743131D01*
X240916Y742489D01*
X240490Y741881D01*
X240013Y741312D01*
X239488Y740787D01*
X238919Y740310D01*
X238311Y739884D01*
X237669Y739513D01*
X236996Y739200D01*
X236298Y738946D01*
X235582Y738754D01*
X234851Y738625D01*
X234111Y738560D01*
X233369Y738560D01*
X232629Y738625D01*
X231899Y738754D01*
X231182Y738946D01*
X230484Y739200D01*
X229811Y739513D01*
X229169Y739884D01*
X228561Y740310D01*
X227992Y740787D01*
X227467Y741312D01*
X226990Y741881D01*
X226564Y742489D01*
X226193Y743131D01*
X225880Y743804D01*
X225626Y744502D01*
X225434Y745219D01*
X225305Y745949D01*
X225240Y746689D01*
X225240Y747431D01*
X225305Y748171D01*
X225434Y748902D01*
X225626Y749618D01*
X225880Y750316D01*
X226193Y750989D01*
X226564Y751631D01*
X226990Y752239D01*
X227467Y752808D01*
X227992Y753333D01*
X228561Y753810D01*
X229169Y754236D01*
X229811Y754607D01*
X230484Y754920D01*
X231182Y755174D01*
X231899Y755366D01*
X232629Y755495D01*
X233369Y755560D01*
X234111Y755560D01*
X234851Y755495D01*
X235582Y755366D01*
X236298Y755174D01*
X236996Y754920D01*
X237669Y754607D01*
X238311Y754236D01*
X238919Y753810D01*
X239488Y753333D01*
X240013Y752808D01*
X240490Y752239D01*
X240916Y751631D01*
X241287Y750989D01*
X241600Y750316D01*
X241854Y749618D01*
X242046Y748902D01*
X242175Y748171D01*
X242240Y747431D01*
X242240Y746689D01*
X343840Y746689D02*
X343775Y745949D01*
X343646Y745219D01*
X343454Y744502D01*
X343200Y743804D01*
X342887Y743131D01*
X342516Y742489D01*
X342090Y741881D01*
X341613Y741312D01*
X341088Y740787D01*
X340519Y740310D01*
X339911Y739884D01*
X339269Y739513D01*
X338596Y739200D01*
X337898Y738946D01*
X337182Y738754D01*
X336451Y738625D01*
X335711Y738560D01*
X334969Y738560D01*
X334229Y738625D01*
X333499Y738754D01*
X332782Y738946D01*
X332084Y739200D01*
X331411Y739513D01*
X330769Y739884D01*
X330161Y740310D01*
X329592Y740787D01*
X329067Y741312D01*
X328590Y741881D01*
X328164Y742489D01*
X327793Y743131D01*
X327480Y743804D01*
X327226Y744502D01*
X327034Y745219D01*
X326905Y745949D01*
X326840Y746689D01*
X326840Y747431D01*
X326905Y748171D01*
X327034Y748902D01*
X327226Y749618D01*
X327480Y750316D01*
X327793Y750989D01*
X328164Y751631D01*
X328590Y752239D01*
X329067Y752808D01*
X329592Y753333D01*
X330161Y753810D01*
X330769Y754236D01*
X331411Y754607D01*
X332084Y754920D01*
X332782Y755174D01*
X333499Y755366D01*
X334229Y755495D01*
X334969Y755560D01*
X335711Y755560D01*
X336451Y755495D01*
X337182Y755366D01*
X337898Y755174D01*
X338596Y754920D01*
X339269Y754607D01*
X339911Y754236D01*
X340519Y753810D01*
X341088Y753333D01*
X341613Y752808D01*
X342090Y752239D01*
X342516Y751631D01*
X342887Y750989D01*
X343200Y750316D01*
X343454Y749618D01*
X343646Y748902D01*
X343775Y748171D01*
X343840Y747431D01*
X343840Y746689D01*
X495790Y746456D02*
X495717Y745249D01*
X495571Y744049D01*
X495353Y742860D01*
X495064Y741687D01*
X494705Y740533D01*
X494276Y739403D01*
X493780Y738301D01*
X493218Y737230D01*
X492593Y736196D01*
X491906Y735201D01*
X491161Y734250D01*
X490359Y733345D01*
X489505Y732491D01*
X488600Y731689D01*
X487649Y730944D01*
X486654Y730257D01*
X485620Y729632D01*
X484549Y729070D01*
X483447Y728574D01*
X482317Y728145D01*
X481163Y727786D01*
X479990Y727497D01*
X478801Y727279D01*
X477601Y727133D01*
X476394Y727060D01*
X475186Y727060D01*
X473979Y727133D01*
X472779Y727279D01*
X471590Y727497D01*
X470417Y727786D01*
X469263Y728145D01*
X468133Y728574D01*
X467031Y729070D01*
X465960Y729632D01*
X464926Y730257D01*
X463931Y730944D01*
X462980Y731689D01*
X462075Y732491D01*
X461221Y733345D01*
X460419Y734250D01*
X459674Y735201D01*
X458987Y736196D01*
X458362Y737230D01*
X457800Y738301D01*
X457304Y739403D01*
X456875Y740533D01*
X456516Y741687D01*
X456227Y742860D01*
X456009Y744049D01*
X455863Y745249D01*
X455790Y746456D01*
X455790Y747664D01*
X455863Y748871D01*
X456009Y750071D01*
X456227Y751260D01*
X456516Y752433D01*
X456875Y753587D01*
X457304Y754717D01*
X457800Y755819D01*
X458362Y756890D01*
X458987Y757924D01*
X459674Y758919D01*
X460419Y759870D01*
X461221Y760775D01*
X462075Y761629D01*
X462980Y762431D01*
X463931Y763176D01*
X464926Y763863D01*
X465960Y764488D01*
X467031Y765050D01*
X468133Y765546D01*
X469263Y765975D01*
X470417Y766334D01*
X471590Y766623D01*
X472779Y766841D01*
X473979Y766987D01*
X475186Y767060D01*
X476394Y767060D01*
X477601Y766987D01*
X478801Y766841D01*
X479990Y766623D01*
X481163Y766334D01*
X482317Y765975D01*
X483447Y765546D01*
X484549Y765050D01*
X485620Y764488D01*
X486654Y763863D01*
X487649Y763176D01*
X488600Y762431D01*
X489505Y761629D01*
X490359Y760775D01*
X491161Y759870D01*
X491906Y758919D01*
X492593Y757924D01*
X493218Y756890D01*
X493780Y755819D01*
X494276Y754717D01*
X494705Y753587D01*
X495064Y752433D01*
X495353Y751260D01*
X495571Y750071D01*
X495717Y748871D01*
X495790Y747664D01*
X495790Y746456D01*
X433490Y746689D02*
X433425Y745949D01*
X433296Y745219D01*
X433104Y744502D01*
X432850Y743804D01*
X432537Y743131D01*
X432166Y742489D01*
X431740Y741881D01*
X431263Y741312D01*
X430738Y740787D01*
X430169Y740310D01*
X429561Y739884D01*
X428919Y739513D01*
X428246Y739200D01*
X427548Y738946D01*
X426832Y738754D01*
X426101Y738625D01*
X425361Y738560D01*
X424619Y738560D01*
X423879Y738625D01*
X423149Y738754D01*
X422432Y738946D01*
X421734Y739200D01*
X421061Y739513D01*
X420419Y739884D01*
X419811Y740310D01*
X419242Y740787D01*
X418717Y741312D01*
X418240Y741881D01*
X417814Y742489D01*
X417443Y743131D01*
X417130Y743804D01*
X416876Y744502D01*
X416684Y745219D01*
X416555Y745949D01*
X416490Y746689D01*
X416490Y747431D01*
X416555Y748171D01*
X416684Y748902D01*
X416876Y749618D01*
X417130Y750316D01*
X417443Y750989D01*
X417814Y751631D01*
X418240Y752239D01*
X418717Y752808D01*
X419242Y753333D01*
X419811Y753810D01*
X420419Y754236D01*
X421061Y754607D01*
X421734Y754920D01*
X422432Y755174D01*
X423149Y755366D01*
X423879Y755495D01*
X424619Y755560D01*
X425361Y755560D01*
X426101Y755495D01*
X426832Y755366D01*
X427548Y755174D01*
X428246Y754920D01*
X428919Y754607D01*
X429561Y754236D01*
X430169Y753810D01*
X430738Y753333D01*
X431263Y752808D01*
X431740Y752239D01*
X432166Y751631D01*
X432537Y750989D01*
X432850Y750316D01*
X433104Y749618D01*
X433296Y748902D01*
X433425Y748171D01*
X433490Y747431D01*
X433490Y746689D01*
X535090Y746689D02*
X535025Y745949D01*
X534896Y745219D01*
X534704Y744502D01*
X534450Y743804D01*
X534137Y743131D01*
X533766Y742489D01*
X533340Y741881D01*
X532863Y741312D01*
X532338Y740787D01*
X531769Y740310D01*
X531161Y739884D01*
X530519Y739513D01*
X529846Y739200D01*
X529148Y738946D01*
X528432Y738754D01*
X527701Y738625D01*
X526961Y738560D01*
X526219Y738560D01*
X525479Y738625D01*
X524749Y738754D01*
X524032Y738946D01*
X523334Y739200D01*
X522661Y739513D01*
X522019Y739884D01*
X521411Y740310D01*
X520842Y740787D01*
X520317Y741312D01*
X519840Y741881D01*
X519414Y742489D01*
X519043Y743131D01*
X518730Y743804D01*
X518476Y744502D01*
X518284Y745219D01*
X518155Y745949D01*
X518090Y746689D01*
X518090Y747431D01*
X518155Y748171D01*
X518284Y748902D01*
X518476Y749618D01*
X518730Y750316D01*
X519043Y750989D01*
X519414Y751631D01*
X519840Y752239D01*
X520317Y752808D01*
X520842Y753333D01*
X521411Y753810D01*
X522019Y754236D01*
X522661Y754607D01*
X523334Y754920D01*
X524032Y755174D01*
X524749Y755366D01*
X525479Y755495D01*
X526219Y755560D01*
X526961Y755560D01*
X527701Y755495D01*
X528432Y755366D01*
X529148Y755174D01*
X529846Y754920D01*
X530519Y754607D01*
X531161Y754236D01*
X531769Y753810D01*
X532338Y753333D01*
X532863Y752808D01*
X533340Y752239D01*
X533766Y751631D01*
X534137Y750989D01*
X534450Y750316D01*
X534704Y749618D01*
X534896Y748902D01*
X535025Y748171D01*
X535090Y747431D01*
X535090Y746689D01*
X685930Y746296D02*
X685857Y745089D01*
X685711Y743889D01*
X685493Y742700D01*
X685204Y741527D01*
X684845Y740373D01*
X684416Y739243D01*
X683920Y738141D01*
X683358Y737070D01*
X682733Y736036D01*
X682046Y735041D01*
X681301Y734090D01*
X680499Y733185D01*
X679645Y732331D01*
X678740Y731529D01*
X677789Y730784D01*
X676794Y730097D01*
X675760Y729472D01*
X674689Y728910D01*
X673587Y728414D01*
X672457Y727985D01*
X671303Y727626D01*
X670130Y727337D01*
X668941Y727119D01*
X667741Y726973D01*
X666534Y726900D01*
X665326Y726900D01*
X664119Y726973D01*
X662919Y727119D01*
X661730Y727337D01*
X660557Y727626D01*
X659403Y727985D01*
X658273Y728414D01*
X657171Y728910D01*
X656100Y729472D01*
X655066Y730097D01*
X654071Y730784D01*
X653120Y731529D01*
X652215Y732331D01*
X651361Y733185D01*
X650559Y734090D01*
X649814Y735041D01*
X649127Y736036D01*
X648502Y737070D01*
X647940Y738141D01*
X647444Y739243D01*
X647015Y740373D01*
X646656Y741527D01*
X646367Y742700D01*
X646149Y743889D01*
X646003Y745089D01*
X645930Y746296D01*
X645930Y747504D01*
X646003Y748711D01*
X646149Y749911D01*
X646367Y751100D01*
X646656Y752273D01*
X647015Y753427D01*
X647444Y754557D01*
X647940Y755659D01*
X648502Y756730D01*
X649127Y757764D01*
X649814Y758759D01*
X650559Y759710D01*
X651361Y760615D01*
X652215Y761469D01*
X653120Y762271D01*
X654071Y763016D01*
X655066Y763703D01*
X656100Y764328D01*
X657171Y764890D01*
X658273Y765386D01*
X659403Y765815D01*
X660557Y766174D01*
X661730Y766463D01*
X662919Y766681D01*
X664119Y766827D01*
X665326Y766900D01*
X666534Y766900D01*
X667741Y766827D01*
X668941Y766681D01*
X670130Y766463D01*
X671303Y766174D01*
X672457Y765815D01*
X673587Y765386D01*
X674689Y764890D01*
X675760Y764328D01*
X676794Y763703D01*
X677789Y763016D01*
X678740Y762271D01*
X679645Y761469D01*
X680499Y760615D01*
X681301Y759710D01*
X682046Y758759D01*
X682733Y757764D01*
X683358Y756730D01*
X683920Y755659D01*
X684416Y754557D01*
X684845Y753427D01*
X685204Y752273D01*
X685493Y751100D01*
X685711Y749911D01*
X685857Y748711D01*
X685930Y747504D01*
X685930Y746296D01*
X623630Y746529D02*
X623565Y745789D01*
X623436Y745059D01*
X623244Y744342D01*
X622990Y743644D01*
X622677Y742971D01*
X622306Y742329D01*
X621880Y741721D01*
X621403Y741152D01*
X620878Y740627D01*
X620309Y740150D01*
X619701Y739724D01*
X619059Y739353D01*
X618386Y739040D01*
X617688Y738786D01*
X616972Y738594D01*
X616241Y738465D01*
X615501Y738400D01*
X614759Y738400D01*
X614019Y738465D01*
X613289Y738594D01*
X612572Y738786D01*
X611874Y739040D01*
X611201Y739353D01*
X610559Y739724D01*
X609951Y740150D01*
X609382Y740627D01*
X608857Y741152D01*
X608380Y741721D01*
X607954Y742329D01*
X607583Y742971D01*
X607270Y743644D01*
X607016Y744342D01*
X606824Y745059D01*
X606695Y745789D01*
X606630Y746529D01*
X606630Y747271D01*
X606695Y748011D01*
X606824Y748742D01*
X607016Y749458D01*
X607270Y750156D01*
X607583Y750829D01*
X607954Y751471D01*
X608380Y752079D01*
X608857Y752648D01*
X609382Y753173D01*
X609951Y753650D01*
X610559Y754076D01*
X611201Y754447D01*
X611874Y754760D01*
X612572Y755014D01*
X613289Y755206D01*
X614019Y755335D01*
X614759Y755400D01*
X615501Y755400D01*
X616241Y755335D01*
X616972Y755206D01*
X617688Y755014D01*
X618386Y754760D01*
X619059Y754447D01*
X619701Y754076D01*
X620309Y753650D01*
X620878Y753173D01*
X621403Y752648D01*
X621880Y752079D01*
X622306Y751471D01*
X622677Y750829D01*
X622990Y750156D01*
X623244Y749458D01*
X623436Y748742D01*
X623565Y748011D01*
X623630Y747271D01*
X623630Y746529D01*
X725230Y746529D02*
X725165Y745789D01*
X725036Y745059D01*
X724844Y744342D01*
X724590Y743644D01*
X724277Y742971D01*
X723906Y742329D01*
X723480Y741721D01*
X723003Y741152D01*
X722478Y740627D01*
X721909Y740150D01*
X721301Y739724D01*
X720659Y739353D01*
X719986Y739040D01*
X719288Y738786D01*
X718572Y738594D01*
X717841Y738465D01*
X717101Y738400D01*
X716359Y738400D01*
X715619Y738465D01*
X714889Y738594D01*
X714172Y738786D01*
X713474Y739040D01*
X712801Y739353D01*
X712159Y739724D01*
X711551Y740150D01*
X710982Y740627D01*
X710457Y741152D01*
X709980Y741721D01*
X709554Y742329D01*
X709183Y742971D01*
X708870Y743644D01*
X708616Y744342D01*
X708424Y745059D01*
X708295Y745789D01*
X708230Y746529D01*
X708230Y747271D01*
X708295Y748011D01*
X708424Y748742D01*
X708616Y749458D01*
X708870Y750156D01*
X709183Y750829D01*
X709554Y751471D01*
X709980Y752079D01*
X710457Y752648D01*
X710982Y753173D01*
X711551Y753650D01*
X712159Y754076D01*
X712801Y754447D01*
X713474Y754760D01*
X714172Y755014D01*
X714889Y755206D01*
X715619Y755335D01*
X716359Y755400D01*
X717101Y755400D01*
X717841Y755335D01*
X718572Y755206D01*
X719288Y755014D01*
X719986Y754760D01*
X720659Y754447D01*
X721301Y754076D01*
X721909Y753650D01*
X722478Y753173D01*
X723003Y752648D01*
X723480Y752079D01*
X723906Y751471D01*
X724277Y750829D01*
X724590Y750156D01*
X724844Y749458D01*
X725036Y748742D01*
X725165Y748011D01*
X725230Y747271D01*
X725230Y746529D01*
X686800Y555206D02*
X686727Y553999D01*
X686581Y552799D01*
X686363Y551610D01*
X686074Y550437D01*
X685715Y549283D01*
X685286Y548153D01*
X684790Y547051D01*
X684228Y545980D01*
X683603Y544946D01*
X682916Y543951D01*
X682171Y543000D01*
X681369Y542095D01*
X680515Y541241D01*
X679610Y540439D01*
X678659Y539694D01*
X677664Y539007D01*
X676630Y538382D01*
X675559Y537820D01*
X674457Y537324D01*
X673327Y536895D01*
X672173Y536536D01*
X671000Y536247D01*
X669811Y536029D01*
X668611Y535883D01*
X667404Y535810D01*
X666196Y535810D01*
X664989Y535883D01*
X663789Y536029D01*
X662600Y536247D01*
X661427Y536536D01*
X660273Y536895D01*
X659143Y537324D01*
X658041Y537820D01*
X656970Y538382D01*
X655936Y539007D01*
X654941Y539694D01*
X653990Y540439D01*
X653085Y541241D01*
X652231Y542095D01*
X651429Y543000D01*
X650684Y543951D01*
X649997Y544946D01*
X649372Y545980D01*
X648810Y547051D01*
X648314Y548153D01*
X647885Y549283D01*
X647526Y550437D01*
X647237Y551610D01*
X647019Y552799D01*
X646873Y553999D01*
X646800Y555206D01*
X646800Y556414D01*
X646873Y557621D01*
X647019Y558821D01*
X647237Y560010D01*
X647526Y561183D01*
X647885Y562337D01*
X648314Y563467D01*
X648810Y564569D01*
X649372Y565640D01*
X649997Y566674D01*
X650684Y567669D01*
X651429Y568620D01*
X652231Y569525D01*
X653085Y570379D01*
X653990Y571181D01*
X654941Y571926D01*
X655936Y572613D01*
X656970Y573238D01*
X658041Y573800D01*
X659143Y574296D01*
X660273Y574725D01*
X661427Y575084D01*
X662600Y575373D01*
X663789Y575591D01*
X664989Y575737D01*
X666196Y575810D01*
X667404Y575810D01*
X668611Y575737D01*
X669811Y575591D01*
X671000Y575373D01*
X672173Y575084D01*
X673327Y574725D01*
X674457Y574296D01*
X675559Y573800D01*
X676630Y573238D01*
X677664Y572613D01*
X678659Y571926D01*
X679610Y571181D01*
X680515Y570379D01*
X681369Y569525D01*
X682171Y568620D01*
X682916Y567669D01*
X683603Y566674D01*
X684228Y565640D01*
X684790Y564569D01*
X685286Y563467D01*
X685715Y562337D01*
X686074Y561183D01*
X686363Y560010D01*
X686581Y558821D01*
X686727Y557621D01*
X686800Y556414D01*
X686800Y555206D01*
X624500Y555439D02*
X624435Y554699D01*
X624306Y553969D01*
X624114Y553252D01*
X623860Y552554D01*
X623547Y551881D01*
X623176Y551239D01*
X622750Y550631D01*
X622273Y550062D01*
X621748Y549537D01*
X621179Y549060D01*
X620571Y548634D01*
X619929Y548263D01*
X619256Y547950D01*
X618558Y547696D01*
X617842Y547504D01*
X617111Y547375D01*
X616371Y547310D01*
X615629Y547310D01*
X614889Y547375D01*
X614159Y547504D01*
X613442Y547696D01*
X612744Y547950D01*
X612071Y548263D01*
X611429Y548634D01*
X610821Y549060D01*
X610252Y549537D01*
X609727Y550062D01*
X609250Y550631D01*
X608824Y551239D01*
X608453Y551881D01*
X608140Y552554D01*
X607886Y553252D01*
X607694Y553969D01*
X607565Y554699D01*
X607500Y555439D01*
X607500Y556181D01*
X607565Y556921D01*
X607694Y557652D01*
X607886Y558368D01*
X608140Y559066D01*
X608453Y559739D01*
X608824Y560381D01*
X609250Y560989D01*
X609727Y561558D01*
X610252Y562083D01*
X610821Y562560D01*
X611429Y562986D01*
X612071Y563357D01*
X612744Y563670D01*
X613442Y563924D01*
X614159Y564116D01*
X614889Y564245D01*
X615629Y564310D01*
X616371Y564310D01*
X617111Y564245D01*
X617842Y564116D01*
X618558Y563924D01*
X619256Y563670D01*
X619929Y563357D01*
X620571Y562986D01*
X621179Y562560D01*
X621748Y562083D01*
X622273Y561558D01*
X622750Y560989D01*
X623176Y560381D01*
X623547Y559739D01*
X623860Y559066D01*
X624114Y558368D01*
X624306Y557652D01*
X624435Y556921D01*
X624500Y556181D01*
X624500Y555439D01*
X726100Y555439D02*
X726035Y554699D01*
X725906Y553969D01*
X725714Y553252D01*
X725460Y552554D01*
X725147Y551881D01*
X724776Y551239D01*
X724350Y550631D01*
X723873Y550062D01*
X723348Y549537D01*
X722779Y549060D01*
X722171Y548634D01*
X721529Y548263D01*
X720856Y547950D01*
X720158Y547696D01*
X719442Y547504D01*
X718711Y547375D01*
X717971Y547310D01*
X717229Y547310D01*
X716489Y547375D01*
X715759Y547504D01*
X715042Y547696D01*
X714344Y547950D01*
X713671Y548263D01*
X713029Y548634D01*
X712421Y549060D01*
X711852Y549537D01*
X711327Y550062D01*
X710850Y550631D01*
X710424Y551239D01*
X710053Y551881D01*
X709740Y552554D01*
X709486Y553252D01*
X709294Y553969D01*
X709165Y554699D01*
X709100Y555439D01*
X709100Y556181D01*
X709165Y556921D01*
X709294Y557652D01*
X709486Y558368D01*
X709740Y559066D01*
X710053Y559739D01*
X710424Y560381D01*
X710850Y560989D01*
X711327Y561558D01*
X711852Y562083D01*
X712421Y562560D01*
X713029Y562986D01*
X713671Y563357D01*
X714344Y563670D01*
X715042Y563924D01*
X715759Y564116D01*
X716489Y564245D01*
X717229Y564310D01*
X717971Y564310D01*
X718711Y564245D01*
X719442Y564116D01*
X720158Y563924D01*
X720856Y563670D01*
X721529Y563357D01*
X722171Y562986D01*
X722779Y562560D01*
X723348Y562083D01*
X723873Y561558D01*
X724350Y560989D01*
X724776Y560381D01*
X725147Y559739D01*
X725460Y559066D01*
X725714Y558368D01*
X725906Y557652D01*
X726035Y556921D01*
X726100Y556181D01*
X726100Y555439D01*
X495670Y556476D02*
X495597Y555269D01*
X495451Y554069D01*
X495233Y552880D01*
X494944Y551707D01*
X494585Y550553D01*
X494156Y549423D01*
X493660Y548321D01*
X493098Y547250D01*
X492473Y546216D01*
X491786Y545221D01*
X491041Y544270D01*
X490239Y543365D01*
X489385Y542511D01*
X488480Y541709D01*
X487529Y540964D01*
X486534Y540277D01*
X485500Y539652D01*
X484429Y539090D01*
X483327Y538594D01*
X482197Y538165D01*
X481043Y537806D01*
X479870Y537517D01*
X478681Y537299D01*
X477481Y537153D01*
X476274Y537080D01*
X475066Y537080D01*
X473859Y537153D01*
X472659Y537299D01*
X471470Y537517D01*
X470297Y537806D01*
X469143Y538165D01*
X468013Y538594D01*
X466911Y539090D01*
X465840Y539652D01*
X464806Y540277D01*
X463811Y540964D01*
X462860Y541709D01*
X461955Y542511D01*
X461101Y543365D01*
X460299Y544270D01*
X459554Y545221D01*
X458867Y546216D01*
X458242Y547250D01*
X457680Y548321D01*
X457184Y549423D01*
X456755Y550553D01*
X456396Y551707D01*
X456107Y552880D01*
X455889Y554069D01*
X455743Y555269D01*
X455670Y556476D01*
X455670Y557684D01*
X455743Y558891D01*
X455889Y560091D01*
X456107Y561280D01*
X456396Y562453D01*
X456755Y563607D01*
X457184Y564737D01*
X457680Y565839D01*
X458242Y566910D01*
X458867Y567944D01*
X459554Y568939D01*
X460299Y569890D01*
X461101Y570795D01*
X461955Y571649D01*
X462860Y572451D01*
X463811Y573196D01*
X464806Y573883D01*
X465840Y574508D01*
X466911Y575070D01*
X468013Y575566D01*
X469143Y575995D01*
X470297Y576354D01*
X471470Y576643D01*
X472659Y576861D01*
X473859Y577007D01*
X475066Y577080D01*
X476274Y577080D01*
X477481Y577007D01*
X478681Y576861D01*
X479870Y576643D01*
X481043Y576354D01*
X482197Y575995D01*
X483327Y575566D01*
X484429Y575070D01*
X485500Y574508D01*
X486534Y573883D01*
X487529Y573196D01*
X488480Y572451D01*
X489385Y571649D01*
X490239Y570795D01*
X491041Y569890D01*
X491786Y568939D01*
X492473Y567944D01*
X493098Y566910D01*
X493660Y565839D01*
X494156Y564737D01*
X494585Y563607D01*
X494944Y562453D01*
X495233Y561280D01*
X495451Y560091D01*
X495597Y558891D01*
X495670Y557684D01*
X495670Y556476D01*
X433370Y556709D02*
X433305Y555969D01*
X433176Y555239D01*
X432984Y554522D01*
X432730Y553824D01*
X432417Y553151D01*
X432046Y552509D01*
X431620Y551901D01*
X431143Y551332D01*
X430618Y550807D01*
X430049Y550330D01*
X429441Y549904D01*
X428799Y549533D01*
X428126Y549220D01*
X427428Y548966D01*
X426712Y548774D01*
X425981Y548645D01*
X425241Y548580D01*
X424499Y548580D01*
X423759Y548645D01*
X423029Y548774D01*
X422312Y548966D01*
X421614Y549220D01*
X420941Y549533D01*
X420299Y549904D01*
X419691Y550330D01*
X419122Y550807D01*
X418597Y551332D01*
X418120Y551901D01*
X417694Y552509D01*
X417323Y553151D01*
X417010Y553824D01*
X416756Y554522D01*
X416564Y555239D01*
X416435Y555969D01*
X416370Y556709D01*
X416370Y557451D01*
X416435Y558191D01*
X416564Y558922D01*
X416756Y559638D01*
X417010Y560336D01*
X417323Y561009D01*
X417694Y561651D01*
X418120Y562259D01*
X418597Y562828D01*
X419122Y563353D01*
X419691Y563830D01*
X420299Y564256D01*
X420941Y564627D01*
X421614Y564940D01*
X422312Y565194D01*
X423029Y565386D01*
X423759Y565515D01*
X424499Y565580D01*
X425241Y565580D01*
X425981Y565515D01*
X426712Y565386D01*
X427428Y565194D01*
X428126Y564940D01*
X428799Y564627D01*
X429441Y564256D01*
X430049Y563830D01*
X430618Y563353D01*
X431143Y562828D01*
X431620Y562259D01*
X432046Y561651D01*
X432417Y561009D01*
X432730Y560336D01*
X432984Y559638D01*
X433176Y558922D01*
X433305Y558191D01*
X433370Y557451D01*
X433370Y556709D01*
X534970Y556709D02*
X534905Y555969D01*
X534776Y555239D01*
X534584Y554522D01*
X534330Y553824D01*
X534017Y553151D01*
X533646Y552509D01*
X533220Y551901D01*
X532743Y551332D01*
X532218Y550807D01*
X531649Y550330D01*
X531041Y549904D01*
X530399Y549533D01*
X529726Y549220D01*
X529028Y548966D01*
X528312Y548774D01*
X527581Y548645D01*
X526841Y548580D01*
X526099Y548580D01*
X525359Y548645D01*
X524629Y548774D01*
X523912Y548966D01*
X523214Y549220D01*
X522541Y549533D01*
X521899Y549904D01*
X521291Y550330D01*
X520722Y550807D01*
X520197Y551332D01*
X519720Y551901D01*
X519294Y552509D01*
X518923Y553151D01*
X518610Y553824D01*
X518356Y554522D01*
X518164Y555239D01*
X518035Y555969D01*
X517970Y556709D01*
X517970Y557451D01*
X518035Y558191D01*
X518164Y558922D01*
X518356Y559638D01*
X518610Y560336D01*
X518923Y561009D01*
X519294Y561651D01*
X519720Y562259D01*
X520197Y562828D01*
X520722Y563353D01*
X521291Y563830D01*
X521899Y564256D01*
X522541Y564627D01*
X523214Y564940D01*
X523912Y565194D01*
X524629Y565386D01*
X525359Y565515D01*
X526099Y565580D01*
X526841Y565580D01*
X527581Y565515D01*
X528312Y565386D01*
X529028Y565194D01*
X529726Y564940D01*
X530399Y564627D01*
X531041Y564256D01*
X531649Y563830D01*
X532218Y563353D01*
X532743Y562828D01*
X533220Y562259D01*
X533646Y561651D01*
X534017Y561009D01*
X534330Y560336D01*
X534584Y559638D01*
X534776Y558922D01*
X534905Y558191D01*
X534970Y557451D01*
X534970Y556709D01*
X304380Y555206D02*
X304307Y553999D01*
X304161Y552799D01*
X303943Y551610D01*
X303654Y550437D01*
X303295Y549283D01*
X302866Y548153D01*
X302370Y547051D01*
X301808Y545980D01*
X301183Y544946D01*
X300496Y543951D01*
X299751Y543000D01*
X298949Y542095D01*
X298095Y541241D01*
X297190Y540439D01*
X296239Y539694D01*
X295244Y539007D01*
X294210Y538382D01*
X293139Y537820D01*
X292037Y537324D01*
X290907Y536895D01*
X289753Y536536D01*
X288580Y536247D01*
X287391Y536029D01*
X286191Y535883D01*
X284984Y535810D01*
X283776Y535810D01*
X282569Y535883D01*
X281369Y536029D01*
X280180Y536247D01*
X279007Y536536D01*
X277853Y536895D01*
X276723Y537324D01*
X275621Y537820D01*
X274550Y538382D01*
X273516Y539007D01*
X272521Y539694D01*
X271570Y540439D01*
X270665Y541241D01*
X269811Y542095D01*
X269009Y543000D01*
X268264Y543951D01*
X267577Y544946D01*
X266952Y545980D01*
X266390Y547051D01*
X265894Y548153D01*
X265465Y549283D01*
X265106Y550437D01*
X264817Y551610D01*
X264599Y552799D01*
X264453Y553999D01*
X264380Y555206D01*
X264380Y556414D01*
X264453Y557621D01*
X264599Y558821D01*
X264817Y560010D01*
X265106Y561183D01*
X265465Y562337D01*
X265894Y563467D01*
X266390Y564569D01*
X266952Y565640D01*
X267577Y566674D01*
X268264Y567669D01*
X269009Y568620D01*
X269811Y569525D01*
X270665Y570379D01*
X271570Y571181D01*
X272521Y571926D01*
X273516Y572613D01*
X274550Y573238D01*
X275621Y573800D01*
X276723Y574296D01*
X277853Y574725D01*
X279007Y575084D01*
X280180Y575373D01*
X281369Y575591D01*
X282569Y575737D01*
X283776Y575810D01*
X284984Y575810D01*
X286191Y575737D01*
X287391Y575591D01*
X288580Y575373D01*
X289753Y575084D01*
X290907Y574725D01*
X292037Y574296D01*
X293139Y573800D01*
X294210Y573238D01*
X295244Y572613D01*
X296239Y571926D01*
X297190Y571181D01*
X298095Y570379D01*
X298949Y569525D01*
X299751Y568620D01*
X300496Y567669D01*
X301183Y566674D01*
X301808Y565640D01*
X302370Y564569D01*
X302866Y563467D01*
X303295Y562337D01*
X303654Y561183D01*
X303943Y560010D01*
X304161Y558821D01*
X304307Y557621D01*
X304380Y556414D01*
X304380Y555206D01*
X242080Y555439D02*
X242015Y554699D01*
X241886Y553969D01*
X241694Y553252D01*
X241440Y552554D01*
X241127Y551881D01*
X240756Y551239D01*
X240330Y550631D01*
X239853Y550062D01*
X239328Y549537D01*
X238759Y549060D01*
X238151Y548634D01*
X237509Y548263D01*
X236836Y547950D01*
X236138Y547696D01*
X235422Y547504D01*
X234691Y547375D01*
X233951Y547310D01*
X233209Y547310D01*
X232469Y547375D01*
X231739Y547504D01*
X231022Y547696D01*
X230324Y547950D01*
X229651Y548263D01*
X229009Y548634D01*
X228401Y549060D01*
X227832Y549537D01*
X227307Y550062D01*
X226830Y550631D01*
X226404Y551239D01*
X226033Y551881D01*
X225720Y552554D01*
X225466Y553252D01*
X225274Y553969D01*
X225145Y554699D01*
X225080Y555439D01*
X225080Y556181D01*
X225145Y556921D01*
X225274Y557652D01*
X225466Y558368D01*
X225720Y559066D01*
X226033Y559739D01*
X226404Y560381D01*
X226830Y560989D01*
X227307Y561558D01*
X227832Y562083D01*
X228401Y562560D01*
X229009Y562986D01*
X229651Y563357D01*
X230324Y563670D01*
X231022Y563924D01*
X231739Y564116D01*
X232469Y564245D01*
X233209Y564310D01*
X233951Y564310D01*
X234691Y564245D01*
X235422Y564116D01*
X236138Y563924D01*
X236836Y563670D01*
X237509Y563357D01*
X238151Y562986D01*
X238759Y562560D01*
X239328Y562083D01*
X239853Y561558D01*
X240330Y560989D01*
X240756Y560381D01*
X241127Y559739D01*
X241440Y559066D01*
X241694Y558368D01*
X241886Y557652D01*
X242015Y556921D01*
X242080Y556181D01*
X242080Y555439D01*
X343680Y555439D02*
X343615Y554699D01*
X343486Y553969D01*
X343294Y553252D01*
X343040Y552554D01*
X342727Y551881D01*
X342356Y551239D01*
X341930Y550631D01*
X341453Y550062D01*
X340928Y549537D01*
X340359Y549060D01*
X339751Y548634D01*
X339109Y548263D01*
X338436Y547950D01*
X337738Y547696D01*
X337022Y547504D01*
X336291Y547375D01*
X335551Y547310D01*
X334809Y547310D01*
X334069Y547375D01*
X333339Y547504D01*
X332622Y547696D01*
X331924Y547950D01*
X331251Y548263D01*
X330609Y548634D01*
X330001Y549060D01*
X329432Y549537D01*
X328907Y550062D01*
X328430Y550631D01*
X328004Y551239D01*
X327633Y551881D01*
X327320Y552554D01*
X327066Y553252D01*
X326874Y553969D01*
X326745Y554699D01*
X326680Y555439D01*
X326680Y556181D01*
X326745Y556921D01*
X326874Y557652D01*
X327066Y558368D01*
X327320Y559066D01*
X327633Y559739D01*
X328004Y560381D01*
X328430Y560989D01*
X328907Y561558D01*
X329432Y562083D01*
X330001Y562560D01*
X330609Y562986D01*
X331251Y563357D01*
X331924Y563670D01*
X332622Y563924D01*
X333339Y564116D01*
X334069Y564245D01*
X334809Y564310D01*
X335551Y564310D01*
X336291Y564245D01*
X337022Y564116D01*
X337738Y563924D01*
X338436Y563670D01*
X339109Y563357D01*
X339751Y562986D01*
X340359Y562560D01*
X340928Y562083D01*
X341453Y561558D01*
X341930Y560989D01*
X342356Y560381D01*
X342727Y559739D01*
X343040Y559066D01*
X343294Y558368D01*
X343486Y557652D01*
X343615Y556921D01*
X343680Y556181D01*
X343680Y555439D01*
X304520Y365206D02*
X304447Y363999D01*
X304301Y362799D01*
X304083Y361610D01*
X303794Y360437D01*
X303435Y359283D01*
X303006Y358153D01*
X302510Y357051D01*
X301948Y355980D01*
X301323Y354946D01*
X300636Y353951D01*
X299891Y353000D01*
X299089Y352095D01*
X298235Y351241D01*
X297330Y350439D01*
X296379Y349694D01*
X295384Y349007D01*
X294350Y348382D01*
X293279Y347820D01*
X292177Y347324D01*
X291047Y346895D01*
X289893Y346536D01*
X288720Y346247D01*
X287531Y346029D01*
X286331Y345883D01*
X285124Y345810D01*
X283916Y345810D01*
X282709Y345883D01*
X281509Y346029D01*
X280320Y346247D01*
X279147Y346536D01*
X277993Y346895D01*
X276863Y347324D01*
X275761Y347820D01*
X274690Y348382D01*
X273656Y349007D01*
X272661Y349694D01*
X271710Y350439D01*
X270805Y351241D01*
X269951Y352095D01*
X269149Y353000D01*
X268404Y353951D01*
X267717Y354946D01*
X267092Y355980D01*
X266530Y357051D01*
X266034Y358153D01*
X265605Y359283D01*
X265246Y360437D01*
X264957Y361610D01*
X264739Y362799D01*
X264593Y363999D01*
X264520Y365206D01*
X264520Y366414D01*
X264593Y367621D01*
X264739Y368821D01*
X264957Y370010D01*
X265246Y371183D01*
X265605Y372337D01*
X266034Y373467D01*
X266530Y374569D01*
X267092Y375640D01*
X267717Y376674D01*
X268404Y377669D01*
X269149Y378620D01*
X269951Y379525D01*
X270805Y380379D01*
X271710Y381181D01*
X272661Y381926D01*
X273656Y382613D01*
X274690Y383238D01*
X275761Y383800D01*
X276863Y384296D01*
X277993Y384725D01*
X279147Y385084D01*
X280320Y385373D01*
X281509Y385591D01*
X282709Y385737D01*
X283916Y385810D01*
X285124Y385810D01*
X286331Y385737D01*
X287531Y385591D01*
X288720Y385373D01*
X289893Y385084D01*
X291047Y384725D01*
X292177Y384296D01*
X293279Y383800D01*
X294350Y383238D01*
X295384Y382613D01*
X296379Y381926D01*
X297330Y381181D01*
X298235Y380379D01*
X299089Y379525D01*
X299891Y378620D01*
X300636Y377669D01*
X301323Y376674D01*
X301948Y375640D01*
X302510Y374569D01*
X303006Y373467D01*
X303435Y372337D01*
X303794Y371183D01*
X304083Y370010D01*
X304301Y368821D01*
X304447Y367621D01*
X304520Y366414D01*
X304520Y365206D01*
X242220Y365439D02*
X242155Y364699D01*
X242026Y363969D01*
X241834Y363252D01*
X241580Y362554D01*
X241267Y361881D01*
X240896Y361239D01*
X240470Y360631D01*
X239993Y360062D01*
X239468Y359537D01*
X238899Y359060D01*
X238291Y358634D01*
X237649Y358263D01*
X236976Y357950D01*
X236278Y357696D01*
X235562Y357504D01*
X234831Y357375D01*
X234091Y357310D01*
X233349Y357310D01*
X232609Y357375D01*
X231879Y357504D01*
X231162Y357696D01*
X230464Y357950D01*
X229791Y358263D01*
X229149Y358634D01*
X228541Y359060D01*
X227972Y359537D01*
X227447Y360062D01*
X226970Y360631D01*
X226544Y361239D01*
X226173Y361881D01*
X225860Y362554D01*
X225606Y363252D01*
X225414Y363969D01*
X225285Y364699D01*
X225220Y365439D01*
X225220Y366181D01*
X225285Y366921D01*
X225414Y367652D01*
X225606Y368368D01*
X225860Y369066D01*
X226173Y369739D01*
X226544Y370381D01*
X226970Y370989D01*
X227447Y371558D01*
X227972Y372083D01*
X228541Y372560D01*
X229149Y372986D01*
X229791Y373357D01*
X230464Y373670D01*
X231162Y373924D01*
X231879Y374116D01*
X232609Y374245D01*
X233349Y374310D01*
X234091Y374310D01*
X234831Y374245D01*
X235562Y374116D01*
X236278Y373924D01*
X236976Y373670D01*
X237649Y373357D01*
X238291Y372986D01*
X238899Y372560D01*
X239468Y372083D01*
X239993Y371558D01*
X240470Y370989D01*
X240896Y370381D01*
X241267Y369739D01*
X241580Y369066D01*
X241834Y368368D01*
X242026Y367652D01*
X242155Y366921D01*
X242220Y366181D01*
X242220Y365439D01*
X343820Y365439D02*
X343755Y364699D01*
X343626Y363969D01*
X343434Y363252D01*
X343180Y362554D01*
X342867Y361881D01*
X342496Y361239D01*
X342070Y360631D01*
X341593Y360062D01*
X341068Y359537D01*
X340499Y359060D01*
X339891Y358634D01*
X339249Y358263D01*
X338576Y357950D01*
X337878Y357696D01*
X337162Y357504D01*
X336431Y357375D01*
X335691Y357310D01*
X334949Y357310D01*
X334209Y357375D01*
X333479Y357504D01*
X332762Y357696D01*
X332064Y357950D01*
X331391Y358263D01*
X330749Y358634D01*
X330141Y359060D01*
X329572Y359537D01*
X329047Y360062D01*
X328570Y360631D01*
X328144Y361239D01*
X327773Y361881D01*
X327460Y362554D01*
X327206Y363252D01*
X327014Y363969D01*
X326885Y364699D01*
X326820Y365439D01*
X326820Y366181D01*
X326885Y366921D01*
X327014Y367652D01*
X327206Y368368D01*
X327460Y369066D01*
X327773Y369739D01*
X328144Y370381D01*
X328570Y370989D01*
X329047Y371558D01*
X329572Y372083D01*
X330141Y372560D01*
X330749Y372986D01*
X331391Y373357D01*
X332064Y373670D01*
X332762Y373924D01*
X333479Y374116D01*
X334209Y374245D01*
X334949Y374310D01*
X335691Y374310D01*
X336431Y374245D01*
X337162Y374116D01*
X337878Y373924D01*
X338576Y373670D01*
X339249Y373357D01*
X339891Y372986D01*
X340499Y372560D01*
X341068Y372083D01*
X341593Y371558D01*
X342070Y370989D01*
X342496Y370381D01*
X342867Y369739D01*
X343180Y369066D01*
X343434Y368368D01*
X343626Y367652D01*
X343755Y366921D01*
X343820Y366181D01*
X343820Y365439D01*
X875910Y270206D02*
X875837Y268999D01*
X875691Y267799D01*
X875473Y266610D01*
X875184Y265437D01*
X874825Y264283D01*
X874396Y263153D01*
X873900Y262051D01*
X873338Y260980D01*
X872713Y259946D01*
X872026Y258951D01*
X871281Y258000D01*
X870479Y257095D01*
X869625Y256241D01*
X868720Y255439D01*
X867769Y254694D01*
X866774Y254007D01*
X865740Y253382D01*
X864669Y252820D01*
X863567Y252324D01*
X862437Y251895D01*
X861283Y251536D01*
X860110Y251247D01*
X858921Y251029D01*
X857721Y250883D01*
X856514Y250810D01*
X855306Y250810D01*
X854099Y250883D01*
X852899Y251029D01*
X851710Y251247D01*
X850537Y251536D01*
X849383Y251895D01*
X848253Y252324D01*
X847151Y252820D01*
X846080Y253382D01*
X845046Y254007D01*
X844051Y254694D01*
X843100Y255439D01*
X842195Y256241D01*
X841341Y257095D01*
X840539Y258000D01*
X839794Y258951D01*
X839107Y259946D01*
X838482Y260980D01*
X837920Y262051D01*
X837424Y263153D01*
X836995Y264283D01*
X836636Y265437D01*
X836347Y266610D01*
X836129Y267799D01*
X835983Y268999D01*
X835910Y270206D01*
X835910Y271414D01*
X835983Y272621D01*
X836129Y273821D01*
X836347Y275010D01*
X836636Y276183D01*
X836995Y277337D01*
X837424Y278467D01*
X837920Y279569D01*
X838482Y280640D01*
X839107Y281674D01*
X839794Y282669D01*
X840539Y283620D01*
X841341Y284525D01*
X842195Y285379D01*
X843100Y286181D01*
X844051Y286926D01*
X845046Y287613D01*
X846080Y288238D01*
X847151Y288800D01*
X848253Y289296D01*
X849383Y289725D01*
X850537Y290084D01*
X851710Y290373D01*
X852899Y290591D01*
X854099Y290737D01*
X855306Y290810D01*
X856514Y290810D01*
X857721Y290737D01*
X858921Y290591D01*
X860110Y290373D01*
X861283Y290084D01*
X862437Y289725D01*
X863567Y289296D01*
X864669Y288800D01*
X865740Y288238D01*
X866774Y287613D01*
X867769Y286926D01*
X868720Y286181D01*
X869625Y285379D01*
X870479Y284525D01*
X871281Y283620D01*
X872026Y282669D01*
X872713Y281674D01*
X873338Y280640D01*
X873900Y279569D01*
X874396Y278467D01*
X874825Y277337D01*
X875184Y276183D01*
X875473Y275010D01*
X875691Y273821D01*
X875837Y272621D01*
X875910Y271414D01*
X875910Y270206D01*
X813610Y270439D02*
X813545Y269699D01*
X813416Y268969D01*
X813224Y268252D01*
X812970Y267554D01*
X812657Y266881D01*
X812286Y266239D01*
X811860Y265631D01*
X811383Y265062D01*
X810858Y264537D01*
X810289Y264060D01*
X809681Y263634D01*
X809039Y263263D01*
X808366Y262950D01*
X807668Y262696D01*
X806952Y262504D01*
X806221Y262375D01*
X805481Y262310D01*
X804739Y262310D01*
X803999Y262375D01*
X803269Y262504D01*
X802552Y262696D01*
X801854Y262950D01*
X801181Y263263D01*
X800539Y263634D01*
X799931Y264060D01*
X799362Y264537D01*
X798837Y265062D01*
X798360Y265631D01*
X797934Y266239D01*
X797563Y266881D01*
X797250Y267554D01*
X796996Y268252D01*
X796804Y268969D01*
X796675Y269699D01*
X796610Y270439D01*
X796610Y271181D01*
X796675Y271921D01*
X796804Y272652D01*
X796996Y273368D01*
X797250Y274066D01*
X797563Y274739D01*
X797934Y275381D01*
X798360Y275989D01*
X798837Y276558D01*
X799362Y277083D01*
X799931Y277560D01*
X800539Y277986D01*
X801181Y278357D01*
X801854Y278670D01*
X802552Y278924D01*
X803269Y279116D01*
X803999Y279245D01*
X804739Y279310D01*
X805481Y279310D01*
X806221Y279245D01*
X806952Y279116D01*
X807668Y278924D01*
X808366Y278670D01*
X809039Y278357D01*
X809681Y277986D01*
X810289Y277560D01*
X810858Y277083D01*
X811383Y276558D01*
X811860Y275989D01*
X812286Y275381D01*
X812657Y274739D01*
X812970Y274066D01*
X813224Y273368D01*
X813416Y272652D01*
X813545Y271921D01*
X813610Y271181D01*
X813610Y270439D01*
X915210Y270439D02*
X915145Y269699D01*
X915016Y268969D01*
X914824Y268252D01*
X914570Y267554D01*
X914257Y266881D01*
X913886Y266239D01*
X913460Y265631D01*
X912983Y265062D01*
X912458Y264537D01*
X911889Y264060D01*
X911281Y263634D01*
X910639Y263263D01*
X909966Y262950D01*
X909268Y262696D01*
X908552Y262504D01*
X907821Y262375D01*
X907081Y262310D01*
X906339Y262310D01*
X905599Y262375D01*
X904869Y262504D01*
X904152Y262696D01*
X903454Y262950D01*
X902781Y263263D01*
X902139Y263634D01*
X901531Y264060D01*
X900962Y264537D01*
X900437Y265062D01*
X899960Y265631D01*
X899534Y266239D01*
X899163Y266881D01*
X898850Y267554D01*
X898596Y268252D01*
X898404Y268969D01*
X898275Y269699D01*
X898210Y270439D01*
X898210Y271181D01*
X898275Y271921D01*
X898404Y272652D01*
X898596Y273368D01*
X898850Y274066D01*
X899163Y274739D01*
X899534Y275381D01*
X899960Y275989D01*
X900437Y276558D01*
X900962Y277083D01*
X901531Y277560D01*
X902139Y277986D01*
X902781Y278357D01*
X903454Y278670D01*
X904152Y278924D01*
X904869Y279116D01*
X905599Y279245D01*
X906339Y279310D01*
X907081Y279310D01*
X907821Y279245D01*
X908552Y279116D01*
X909268Y278924D01*
X909966Y278670D01*
X910639Y278357D01*
X911281Y277986D01*
X911889Y277560D01*
X912458Y277083D01*
X912983Y276558D01*
X913460Y275989D01*
X913886Y275381D01*
X914257Y274739D01*
X914570Y274066D01*
X914824Y273368D01*
X915016Y272652D01*
X915145Y271921D01*
X915210Y271181D01*
X915210Y270439D01*
X941160Y151265D02*
X941082Y150179D01*
X940927Y149101D01*
X940696Y148036D01*
X940389Y146991D01*
X940008Y145970D01*
X939556Y144980D01*
X939034Y144023D01*
X938445Y143107D01*
X937792Y142235D01*
X937079Y141412D01*
X936308Y140642D01*
X935485Y139928D01*
X934613Y139275D01*
X933697Y138686D01*
X932741Y138164D01*
X931750Y137712D01*
X930729Y137331D01*
X929684Y137024D01*
X928619Y136793D01*
X927541Y136638D01*
X926455Y136560D01*
X925365Y136560D01*
X924279Y136638D01*
X923201Y136793D01*
X922136Y137024D01*
X921091Y137331D01*
X920070Y137712D01*
X919080Y138164D01*
X918123Y138686D01*
X917207Y139275D01*
X916335Y139928D01*
X915512Y140642D01*
X914742Y141412D01*
X914028Y142235D01*
X913375Y143107D01*
X912786Y144023D01*
X912264Y144980D01*
X911812Y145970D01*
X911431Y146991D01*
X911124Y148036D01*
X910893Y149101D01*
X910738Y150179D01*
X910660Y151265D01*
X910660Y152355D01*
X910738Y153441D01*
X910893Y154519D01*
X911124Y155584D01*
X911431Y156629D01*
X911812Y157650D01*
X912264Y158641D01*
X912786Y159597D01*
X913375Y160513D01*
X914028Y161385D01*
X914742Y162208D01*
X915512Y162979D01*
X916335Y163692D01*
X917207Y164345D01*
X918123Y164934D01*
X919080Y165456D01*
X920070Y165908D01*
X921091Y166289D01*
X922136Y166596D01*
X923201Y166827D01*
X924279Y166982D01*
X925365Y167060D01*
X926455Y167060D01*
X927541Y166982D01*
X928619Y166827D01*
X929684Y166596D01*
X930729Y166289D01*
X931750Y165908D01*
X932741Y165456D01*
X933697Y164934D01*
X934613Y164345D01*
X935485Y163692D01*
X936308Y162979D01*
X937079Y162208D01*
X937792Y161385D01*
X938445Y160513D01*
X939034Y159597D01*
X939556Y158641D01*
X940008Y157650D01*
X940389Y156629D01*
X940696Y155584D01*
X940927Y154519D01*
X941082Y153441D01*
X941160Y152355D01*
X941160Y151265D01*
X941160Y389265D02*
X941082Y388179D01*
X940927Y387101D01*
X940696Y386036D01*
X940389Y384991D01*
X940008Y383970D01*
X939556Y382980D01*
X939034Y382023D01*
X938445Y381107D01*
X937792Y380235D01*
X937079Y379412D01*
X936308Y378642D01*
X935485Y377928D01*
X934613Y377275D01*
X933697Y376686D01*
X932741Y376164D01*
X931750Y375712D01*
X930729Y375331D01*
X929684Y375024D01*
X928619Y374793D01*
X927541Y374638D01*
X926455Y374560D01*
X925365Y374560D01*
X924279Y374638D01*
X923201Y374793D01*
X922136Y375024D01*
X921091Y375331D01*
X920070Y375712D01*
X919080Y376164D01*
X918123Y376686D01*
X917207Y377275D01*
X916335Y377928D01*
X915512Y378642D01*
X914742Y379412D01*
X914028Y380235D01*
X913375Y381107D01*
X912786Y382023D01*
X912264Y382980D01*
X911812Y383970D01*
X911431Y384991D01*
X911124Y386036D01*
X910893Y387101D01*
X910738Y388179D01*
X910660Y389265D01*
X910660Y390355D01*
X910738Y391441D01*
X910893Y392519D01*
X911124Y393584D01*
X911431Y394629D01*
X911812Y395650D01*
X912264Y396641D01*
X912786Y397597D01*
X913375Y398513D01*
X914028Y399385D01*
X914742Y400208D01*
X915512Y400979D01*
X916335Y401692D01*
X917207Y402345D01*
X918123Y402934D01*
X919080Y403456D01*
X920070Y403908D01*
X921091Y404289D01*
X922136Y404596D01*
X923201Y404827D01*
X924279Y404982D01*
X925365Y405060D01*
X926455Y405060D01*
X927541Y404982D01*
X928619Y404827D01*
X929684Y404596D01*
X930729Y404289D01*
X931750Y403908D01*
X932741Y403456D01*
X933697Y402934D01*
X934613Y402345D01*
X935485Y401692D01*
X936308Y400979D01*
X937079Y400208D01*
X937792Y399385D01*
X938445Y398513D01*
X939034Y397597D01*
X939556Y396641D01*
X940008Y395650D01*
X940389Y394629D01*
X940696Y393584D01*
X940927Y392519D01*
X941082Y391441D01*
X941160Y390355D01*
X941160Y389265D01*
X793510Y151206D02*
X793437Y149999D01*
X793291Y148799D01*
X793073Y147610D01*
X792784Y146437D01*
X792425Y145283D01*
X791996Y144153D01*
X791500Y143051D01*
X790938Y141980D01*
X790313Y140946D01*
X789626Y139951D01*
X788881Y139000D01*
X788079Y138095D01*
X787225Y137241D01*
X786320Y136439D01*
X785369Y135694D01*
X784374Y135007D01*
X783340Y134382D01*
X782269Y133820D01*
X781167Y133324D01*
X780037Y132895D01*
X778883Y132536D01*
X777710Y132247D01*
X776521Y132029D01*
X775321Y131883D01*
X774114Y131810D01*
X772906Y131810D01*
X771699Y131883D01*
X770499Y132029D01*
X769310Y132247D01*
X768137Y132536D01*
X766983Y132895D01*
X765853Y133324D01*
X764751Y133820D01*
X763680Y134382D01*
X762646Y135007D01*
X761651Y135694D01*
X760700Y136439D01*
X759795Y137241D01*
X758941Y138095D01*
X758139Y139000D01*
X757394Y139951D01*
X756707Y140946D01*
X756082Y141980D01*
X755520Y143051D01*
X755024Y144153D01*
X754595Y145283D01*
X754236Y146437D01*
X753947Y147610D01*
X753729Y148799D01*
X753583Y149999D01*
X753510Y151206D01*
X753510Y152414D01*
X753583Y153621D01*
X753729Y154821D01*
X753947Y156010D01*
X754236Y157183D01*
X754595Y158337D01*
X755024Y159467D01*
X755520Y160569D01*
X756082Y161640D01*
X756707Y162674D01*
X757394Y163669D01*
X758139Y164620D01*
X758941Y165525D01*
X759795Y166379D01*
X760700Y167181D01*
X761651Y167926D01*
X762646Y168613D01*
X763680Y169238D01*
X764751Y169800D01*
X765853Y170296D01*
X766983Y170725D01*
X768137Y171084D01*
X769310Y171373D01*
X770499Y171591D01*
X771699Y171737D01*
X772906Y171810D01*
X774114Y171810D01*
X775321Y171737D01*
X776521Y171591D01*
X777710Y171373D01*
X778883Y171084D01*
X780037Y170725D01*
X781167Y170296D01*
X782269Y169800D01*
X783340Y169238D01*
X784374Y168613D01*
X785369Y167926D01*
X786320Y167181D01*
X787225Y166379D01*
X788079Y165525D01*
X788881Y164620D01*
X789626Y163669D01*
X790313Y162674D01*
X790938Y161640D01*
X791500Y160569D01*
X791996Y159467D01*
X792425Y158337D01*
X792784Y157183D01*
X793073Y156010D01*
X793291Y154821D01*
X793437Y153621D01*
X793510Y152414D01*
X793510Y151206D01*
X793510Y389206D02*
X793437Y387999D01*
X793291Y386799D01*
X793073Y385610D01*
X792784Y384437D01*
X792425Y383283D01*
X791996Y382153D01*
X791500Y381051D01*
X790938Y379980D01*
X790313Y378946D01*
X789626Y377951D01*
X788881Y377000D01*
X788079Y376095D01*
X787225Y375241D01*
X786320Y374439D01*
X785369Y373694D01*
X784374Y373007D01*
X783340Y372382D01*
X782269Y371820D01*
X781167Y371324D01*
X780037Y370895D01*
X778883Y370536D01*
X777710Y370247D01*
X776521Y370029D01*
X775321Y369883D01*
X774114Y369810D01*
X772906Y369810D01*
X771699Y369883D01*
X770499Y370029D01*
X769310Y370247D01*
X768137Y370536D01*
X766983Y370895D01*
X765853Y371324D01*
X764751Y371820D01*
X763680Y372382D01*
X762646Y373007D01*
X761651Y373694D01*
X760700Y374439D01*
X759795Y375241D01*
X758941Y376095D01*
X758139Y377000D01*
X757394Y377951D01*
X756707Y378946D01*
X756082Y379980D01*
X755520Y381051D01*
X755024Y382153D01*
X754595Y383283D01*
X754236Y384437D01*
X753947Y385610D01*
X753729Y386799D01*
X753583Y387999D01*
X753510Y389206D01*
X753510Y390414D01*
X753583Y391621D01*
X753729Y392821D01*
X753947Y394010D01*
X754236Y395183D01*
X754595Y396337D01*
X755024Y397467D01*
X755520Y398569D01*
X756082Y399640D01*
X756707Y400674D01*
X757394Y401669D01*
X758139Y402620D01*
X758941Y403525D01*
X759795Y404379D01*
X760700Y405181D01*
X761651Y405926D01*
X762646Y406613D01*
X763680Y407238D01*
X764751Y407800D01*
X765853Y408296D01*
X766983Y408725D01*
X768137Y409084D01*
X769310Y409373D01*
X770499Y409591D01*
X771699Y409737D01*
X772906Y409810D01*
X774114Y409810D01*
X775321Y409737D01*
X776521Y409591D01*
X777710Y409373D01*
X778883Y409084D01*
X780037Y408725D01*
X781167Y408296D01*
X782269Y407800D01*
X783340Y407238D01*
X784374Y406613D01*
X785369Y405926D01*
X786320Y405181D01*
X787225Y404379D01*
X788079Y403525D01*
X788881Y402620D01*
X789626Y401669D01*
X790313Y400674D01*
X790938Y399640D01*
X791500Y398569D01*
X791996Y397467D01*
X792425Y396337D01*
X792784Y395183D01*
X793073Y394010D01*
X793291Y392821D01*
X793437Y391621D01*
X793510Y390414D01*
X793510Y389206D01*
X495930Y365206D02*
X495857Y363999D01*
X495711Y362799D01*
X495493Y361610D01*
X495204Y360437D01*
X494845Y359283D01*
X494416Y358153D01*
X493920Y357051D01*
X493358Y355980D01*
X492733Y354946D01*
X492046Y353951D01*
X491301Y353000D01*
X490499Y352095D01*
X489645Y351241D01*
X488740Y350439D01*
X487789Y349694D01*
X486794Y349007D01*
X485760Y348382D01*
X484689Y347820D01*
X483587Y347324D01*
X482457Y346895D01*
X481303Y346536D01*
X480130Y346247D01*
X478941Y346029D01*
X477741Y345883D01*
X476534Y345810D01*
X475326Y345810D01*
X474119Y345883D01*
X472919Y346029D01*
X471730Y346247D01*
X470557Y346536D01*
X469403Y346895D01*
X468273Y347324D01*
X467171Y347820D01*
X466100Y348382D01*
X465066Y349007D01*
X464071Y349694D01*
X463120Y350439D01*
X462215Y351241D01*
X461361Y352095D01*
X460559Y353000D01*
X459814Y353951D01*
X459127Y354946D01*
X458502Y355980D01*
X457940Y357051D01*
X457444Y358153D01*
X457015Y359283D01*
X456656Y360437D01*
X456367Y361610D01*
X456149Y362799D01*
X456003Y363999D01*
X455930Y365206D01*
X455930Y366414D01*
X456003Y367621D01*
X456149Y368821D01*
X456367Y370010D01*
X456656Y371183D01*
X457015Y372337D01*
X457444Y373467D01*
X457940Y374569D01*
X458502Y375640D01*
X459127Y376674D01*
X459814Y377669D01*
X460559Y378620D01*
X461361Y379525D01*
X462215Y380379D01*
X463120Y381181D01*
X464071Y381926D01*
X465066Y382613D01*
X466100Y383238D01*
X467171Y383800D01*
X468273Y384296D01*
X469403Y384725D01*
X470557Y385084D01*
X471730Y385373D01*
X472919Y385591D01*
X474119Y385737D01*
X475326Y385810D01*
X476534Y385810D01*
X477741Y385737D01*
X478941Y385591D01*
X480130Y385373D01*
X481303Y385084D01*
X482457Y384725D01*
X483587Y384296D01*
X484689Y383800D01*
X485760Y383238D01*
X486794Y382613D01*
X487789Y381926D01*
X488740Y381181D01*
X489645Y380379D01*
X490499Y379525D01*
X491301Y378620D01*
X492046Y377669D01*
X492733Y376674D01*
X493358Y375640D01*
X493920Y374569D01*
X494416Y373467D01*
X494845Y372337D01*
X495204Y371183D01*
X495493Y370010D01*
X495711Y368821D01*
X495857Y367621D01*
X495930Y366414D01*
X495930Y365206D01*
X433630Y365439D02*
X433565Y364699D01*
X433436Y363969D01*
X433244Y363252D01*
X432990Y362554D01*
X432677Y361881D01*
X432306Y361239D01*
X431880Y360631D01*
X431403Y360062D01*
X430878Y359537D01*
X430309Y359060D01*
X429701Y358634D01*
X429059Y358263D01*
X428386Y357950D01*
X427688Y357696D01*
X426972Y357504D01*
X426241Y357375D01*
X425501Y357310D01*
X424759Y357310D01*
X424019Y357375D01*
X423289Y357504D01*
X422572Y357696D01*
X421874Y357950D01*
X421201Y358263D01*
X420559Y358634D01*
X419951Y359060D01*
X419382Y359537D01*
X418857Y360062D01*
X418380Y360631D01*
X417954Y361239D01*
X417583Y361881D01*
X417270Y362554D01*
X417016Y363252D01*
X416824Y363969D01*
X416695Y364699D01*
X416630Y365439D01*
X416630Y366181D01*
X416695Y366921D01*
X416824Y367652D01*
X417016Y368368D01*
X417270Y369066D01*
X417583Y369739D01*
X417954Y370381D01*
X418380Y370989D01*
X418857Y371558D01*
X419382Y372083D01*
X419951Y372560D01*
X420559Y372986D01*
X421201Y373357D01*
X421874Y373670D01*
X422572Y373924D01*
X423289Y374116D01*
X424019Y374245D01*
X424759Y374310D01*
X425501Y374310D01*
X426241Y374245D01*
X426972Y374116D01*
X427688Y373924D01*
X428386Y373670D01*
X429059Y373357D01*
X429701Y372986D01*
X430309Y372560D01*
X430878Y372083D01*
X431403Y371558D01*
X431880Y370989D01*
X432306Y370381D01*
X432677Y369739D01*
X432990Y369066D01*
X433244Y368368D01*
X433436Y367652D01*
X433565Y366921D01*
X433630Y366181D01*
X433630Y365439D01*
X535230Y365439D02*
X535165Y364699D01*
X535036Y363969D01*
X534844Y363252D01*
X534590Y362554D01*
X534277Y361881D01*
X533906Y361239D01*
X533480Y360631D01*
X533003Y360062D01*
X532478Y359537D01*
X531909Y359060D01*
X531301Y358634D01*
X530659Y358263D01*
X529986Y357950D01*
X529288Y357696D01*
X528572Y357504D01*
X527841Y357375D01*
X527101Y357310D01*
X526359Y357310D01*
X525619Y357375D01*
X524889Y357504D01*
X524172Y357696D01*
X523474Y357950D01*
X522801Y358263D01*
X522159Y358634D01*
X521551Y359060D01*
X520982Y359537D01*
X520457Y360062D01*
X519980Y360631D01*
X519554Y361239D01*
X519183Y361881D01*
X518870Y362554D01*
X518616Y363252D01*
X518424Y363969D01*
X518295Y364699D01*
X518230Y365439D01*
X518230Y366181D01*
X518295Y366921D01*
X518424Y367652D01*
X518616Y368368D01*
X518870Y369066D01*
X519183Y369739D01*
X519554Y370381D01*
X519980Y370989D01*
X520457Y371558D01*
X520982Y372083D01*
X521551Y372560D01*
X522159Y372986D01*
X522801Y373357D01*
X523474Y373670D01*
X524172Y373924D01*
X524889Y374116D01*
X525619Y374245D01*
X526359Y374310D01*
X527101Y374310D01*
X527841Y374245D01*
X528572Y374116D01*
X529288Y373924D01*
X529986Y373670D01*
X530659Y373357D01*
X531301Y372986D01*
X531909Y372560D01*
X532478Y372083D01*
X533003Y371558D01*
X533480Y370989D01*
X533906Y370381D01*
X534277Y369739D01*
X534590Y369066D01*
X534844Y368368D01*
X535036Y367652D01*
X535165Y366921D01*
X535230Y366181D01*
X535230Y365439D01*
X686800Y363796D02*
X686727Y362589D01*
X686581Y361389D01*
X686363Y360200D01*
X686074Y359027D01*
X685715Y357873D01*
X685286Y356743D01*
X684790Y355641D01*
X684228Y354570D01*
X683603Y353536D01*
X682916Y352541D01*
X682171Y351590D01*
X681369Y350685D01*
X680515Y349831D01*
X679610Y349029D01*
X678659Y348284D01*
X677664Y347597D01*
X676630Y346972D01*
X675559Y346410D01*
X674457Y345914D01*
X673327Y345485D01*
X672173Y345126D01*
X671000Y344837D01*
X669811Y344619D01*
X668611Y344473D01*
X667404Y344400D01*
X666196Y344400D01*
X664989Y344473D01*
X663789Y344619D01*
X662600Y344837D01*
X661427Y345126D01*
X660273Y345485D01*
X659143Y345914D01*
X658041Y346410D01*
X656970Y346972D01*
X655936Y347597D01*
X654941Y348284D01*
X653990Y349029D01*
X653085Y349831D01*
X652231Y350685D01*
X651429Y351590D01*
X650684Y352541D01*
X649997Y353536D01*
X649372Y354570D01*
X648810Y355641D01*
X648314Y356743D01*
X647885Y357873D01*
X647526Y359027D01*
X647237Y360200D01*
X647019Y361389D01*
X646873Y362589D01*
X646800Y363796D01*
X646800Y365004D01*
X646873Y366211D01*
X647019Y367411D01*
X647237Y368600D01*
X647526Y369773D01*
X647885Y370927D01*
X648314Y372057D01*
X648810Y373159D01*
X649372Y374230D01*
X649997Y375264D01*
X650684Y376259D01*
X651429Y377210D01*
X652231Y378115D01*
X653085Y378969D01*
X653990Y379771D01*
X654941Y380516D01*
X655936Y381203D01*
X656970Y381828D01*
X658041Y382390D01*
X659143Y382886D01*
X660273Y383315D01*
X661427Y383674D01*
X662600Y383963D01*
X663789Y384181D01*
X664989Y384327D01*
X666196Y384400D01*
X667404Y384400D01*
X668611Y384327D01*
X669811Y384181D01*
X671000Y383963D01*
X672173Y383674D01*
X673327Y383315D01*
X674457Y382886D01*
X675559Y382390D01*
X676630Y381828D01*
X677664Y381203D01*
X678659Y380516D01*
X679610Y379771D01*
X680515Y378969D01*
X681369Y378115D01*
X682171Y377210D01*
X682916Y376259D01*
X683603Y375264D01*
X684228Y374230D01*
X684790Y373159D01*
X685286Y372057D01*
X685715Y370927D01*
X686074Y369773D01*
X686363Y368600D01*
X686581Y367411D01*
X686727Y366211D01*
X686800Y365004D01*
X686800Y363796D01*
X624500Y364029D02*
X624435Y363289D01*
X624306Y362559D01*
X624114Y361842D01*
X623860Y361144D01*
X623547Y360471D01*
X623176Y359829D01*
X622750Y359221D01*
X622273Y358652D01*
X621748Y358127D01*
X621179Y357650D01*
X620571Y357224D01*
X619929Y356853D01*
X619256Y356540D01*
X618558Y356286D01*
X617842Y356094D01*
X617111Y355965D01*
X616371Y355900D01*
X615629Y355900D01*
X614889Y355965D01*
X614159Y356094D01*
X613442Y356286D01*
X612744Y356540D01*
X612071Y356853D01*
X611429Y357224D01*
X610821Y357650D01*
X610252Y358127D01*
X609727Y358652D01*
X609250Y359221D01*
X608824Y359829D01*
X608453Y360471D01*
X608140Y361144D01*
X607886Y361842D01*
X607694Y362559D01*
X607565Y363289D01*
X607500Y364029D01*
X607500Y364771D01*
X607565Y365511D01*
X607694Y366242D01*
X607886Y366958D01*
X608140Y367656D01*
X608453Y368329D01*
X608824Y368971D01*
X609250Y369579D01*
X609727Y370148D01*
X610252Y370673D01*
X610821Y371150D01*
X611429Y371576D01*
X612071Y371947D01*
X612744Y372260D01*
X613442Y372514D01*
X614159Y372706D01*
X614889Y372835D01*
X615629Y372900D01*
X616371Y372900D01*
X617111Y372835D01*
X617842Y372706D01*
X618558Y372514D01*
X619256Y372260D01*
X619929Y371947D01*
X620571Y371576D01*
X621179Y371150D01*
X621748Y370673D01*
X622273Y370148D01*
X622750Y369579D01*
X623176Y368971D01*
X623547Y368329D01*
X623860Y367656D01*
X624114Y366958D01*
X624306Y366242D01*
X624435Y365511D01*
X624500Y364771D01*
X624500Y364029D01*
X726100Y364029D02*
X726035Y363289D01*
X725906Y362559D01*
X725714Y361842D01*
X725460Y361144D01*
X725147Y360471D01*
X724776Y359829D01*
X724350Y359221D01*
X723873Y358652D01*
X723348Y358127D01*
X722779Y357650D01*
X722171Y357224D01*
X721529Y356853D01*
X720856Y356540D01*
X720158Y356286D01*
X719442Y356094D01*
X718711Y355965D01*
X717971Y355900D01*
X717229Y355900D01*
X716489Y355965D01*
X715759Y356094D01*
X715042Y356286D01*
X714344Y356540D01*
X713671Y356853D01*
X713029Y357224D01*
X712421Y357650D01*
X711852Y358127D01*
X711327Y358652D01*
X710850Y359221D01*
X710424Y359829D01*
X710053Y360471D01*
X709740Y361144D01*
X709486Y361842D01*
X709294Y362559D01*
X709165Y363289D01*
X709100Y364029D01*
X709100Y364771D01*
X709165Y365511D01*
X709294Y366242D01*
X709486Y366958D01*
X709740Y367656D01*
X710053Y368329D01*
X710424Y368971D01*
X710850Y369579D01*
X711327Y370148D01*
X711852Y370673D01*
X712421Y371150D01*
X713029Y371576D01*
X713671Y371947D01*
X714344Y372260D01*
X715042Y372514D01*
X715759Y372706D01*
X716489Y372835D01*
X717229Y372900D01*
X717971Y372900D01*
X718711Y372835D01*
X719442Y372706D01*
X720158Y372514D01*
X720856Y372260D01*
X721529Y371947D01*
X722171Y371576D01*
X722779Y371150D01*
X723348Y370673D01*
X723873Y370148D01*
X724350Y369579D01*
X724776Y368971D01*
X725147Y368329D01*
X725460Y367656D01*
X725714Y366958D01*
X725906Y366242D01*
X726035Y365511D01*
X726100Y364771D01*
X726100Y364029D01*
X90500Y953363D02*
X90424Y952494D01*
X90272Y951634D01*
X90046Y950790D01*
X89748Y949970D01*
X89379Y949178D01*
X88942Y948422D01*
X88441Y947707D01*
X87880Y947038D01*
X87262Y946420D01*
X86593Y945859D01*
X85878Y945358D01*
X85122Y944921D01*
X84330Y944552D01*
X83510Y944254D01*
X82666Y944028D01*
X81807Y943876D01*
X80937Y943800D01*
X80063Y943800D01*
X79194Y943876D01*
X78334Y944028D01*
X77490Y944254D01*
X76670Y944552D01*
X75878Y944921D01*
X75122Y945358D01*
X74407Y945859D01*
X73738Y946420D01*
X73120Y947038D01*
X72559Y947707D01*
X72058Y948422D01*
X71621Y949178D01*
X71252Y949970D01*
X70954Y950790D01*
X70728Y951634D01*
X70576Y952494D01*
X70500Y953363D01*
X70500Y954237D01*
X70576Y955107D01*
X70728Y955966D01*
X70954Y956810D01*
X71252Y957630D01*
X71621Y958422D01*
X72058Y959178D01*
X72559Y959893D01*
X73120Y960562D01*
X73738Y961180D01*
X74407Y961741D01*
X75122Y962242D01*
X75878Y962679D01*
X76670Y963048D01*
X77490Y963346D01*
X78334Y963572D01*
X79194Y963724D01*
X80063Y963800D01*
X80937Y963800D01*
X81807Y963724D01*
X82666Y963572D01*
X83510Y963346D01*
X84330Y963048D01*
X85122Y962679D01*
X85878Y962242D01*
X86593Y961741D01*
X87262Y961180D01*
X87880Y960562D01*
X88441Y959893D01*
X88942Y959178D01*
X89379Y958422D01*
X89748Y957630D01*
X90046Y956810D01*
X90272Y955966D01*
X90424Y955107D01*
X90500Y954237D01*
X90500Y953363D01*
X85520Y747963D02*
X85444Y747094D01*
X85292Y746234D01*
X85066Y745390D01*
X84768Y744570D01*
X84399Y743778D01*
X83962Y743022D01*
X83461Y742307D01*
X82900Y741638D01*
X82282Y741020D01*
X81613Y740459D01*
X80898Y739958D01*
X80142Y739521D01*
X79350Y739152D01*
X78530Y738854D01*
X77686Y738628D01*
X76827Y738476D01*
X75957Y738400D01*
X75083Y738400D01*
X74214Y738476D01*
X73354Y738628D01*
X72510Y738854D01*
X71690Y739152D01*
X70898Y739521D01*
X70142Y739958D01*
X69427Y740459D01*
X68758Y741020D01*
X68140Y741638D01*
X67579Y742307D01*
X67078Y743022D01*
X66641Y743778D01*
X66272Y744570D01*
X65974Y745390D01*
X65748Y746234D01*
X65596Y747094D01*
X65520Y747963D01*
X65520Y748837D01*
X65596Y749707D01*
X65748Y750566D01*
X65974Y751410D01*
X66272Y752230D01*
X66641Y753022D01*
X67078Y753778D01*
X67579Y754493D01*
X68140Y755162D01*
X68758Y755780D01*
X69427Y756341D01*
X70142Y756842D01*
X70898Y757279D01*
X71690Y757648D01*
X72510Y757946D01*
X73354Y758172D01*
X74214Y758324D01*
X75083Y758400D01*
X75957Y758400D01*
X76827Y758324D01*
X77686Y758172D01*
X78530Y757946D01*
X79350Y757648D01*
X80142Y757279D01*
X80898Y756842D01*
X81613Y756341D01*
X82282Y755780D01*
X82900Y755162D01*
X83461Y754493D01*
X83962Y753778D01*
X84399Y753022D01*
X84768Y752230D01*
X85066Y751410D01*
X85292Y750566D01*
X85444Y749707D01*
X85520Y748837D01*
X85520Y747963D01*
X171880Y747963D02*
X171804Y747094D01*
X171652Y746234D01*
X171426Y745390D01*
X171128Y744570D01*
X170759Y743778D01*
X170322Y743022D01*
X169821Y742307D01*
X169260Y741638D01*
X168642Y741020D01*
X167973Y740459D01*
X167258Y739958D01*
X166502Y739521D01*
X165710Y739152D01*
X164890Y738854D01*
X164046Y738628D01*
X163187Y738476D01*
X162317Y738400D01*
X161443Y738400D01*
X160574Y738476D01*
X159714Y738628D01*
X158870Y738854D01*
X158050Y739152D01*
X157258Y739521D01*
X156502Y739958D01*
X155787Y740459D01*
X155118Y741020D01*
X154500Y741638D01*
X153939Y742307D01*
X153438Y743022D01*
X153001Y743778D01*
X152632Y744570D01*
X152334Y745390D01*
X152108Y746234D01*
X151956Y747094D01*
X151880Y747963D01*
X151880Y748837D01*
X151956Y749707D01*
X152108Y750566D01*
X152334Y751410D01*
X152632Y752230D01*
X153001Y753022D01*
X153438Y753778D01*
X153939Y754493D01*
X154500Y755162D01*
X155118Y755780D01*
X155787Y756341D01*
X156502Y756842D01*
X157258Y757279D01*
X158050Y757648D01*
X158870Y757946D01*
X159714Y758172D01*
X160574Y758324D01*
X161443Y758400D01*
X162317Y758400D01*
X163187Y758324D01*
X164046Y758172D01*
X164890Y757946D01*
X165710Y757648D01*
X166502Y757279D01*
X167258Y756842D01*
X167973Y756341D01*
X168642Y755780D01*
X169260Y755162D01*
X169821Y754493D01*
X170322Y753778D01*
X170759Y753022D01*
X171128Y752230D01*
X171426Y751410D01*
X171652Y750566D01*
X171804Y749707D01*
X171880Y748837D01*
X171880Y747963D01*
M02*
