G04 EAGLE Gerber RS-274X export*
G75*
%MOMM*%
%FSLAX34Y34*%
%LPD*%
%INSoldermask Bottom*%
%IPPOS*%
%AMOC8*
5,1,8,0,0,1.08239X$1,22.5*%
G01*
%ADD10C,3.203200*%
%ADD11C,4.203200*%
%ADD12C,1.903200*%
%ADD13C,2.743200*%
%ADD14R,2.203200X3.203200*%
%ADD15C,3.253200*%
%ADD16C,2.203200*%
%ADD17R,2.203200X2.203200*%
%ADD18C,0.959600*%


D10*
X39370Y556260D03*
D11*
X665480Y175260D03*
D12*
X614680Y175260D03*
X716280Y175260D03*
D13*
X627380Y200660D03*
X690880Y226060D03*
D14*
X104200Y661700D03*
X179200Y661700D03*
X179200Y521700D03*
X104200Y521700D03*
D11*
X284480Y937260D03*
D12*
X233680Y937260D03*
X335280Y937260D03*
D13*
X246380Y962660D03*
X309880Y988060D03*
D11*
X855980Y937260D03*
D12*
X805180Y937260D03*
X906780Y937260D03*
D13*
X817880Y962660D03*
X881380Y988060D03*
D11*
X381000Y175260D03*
D12*
X330200Y175260D03*
X431800Y175260D03*
D15*
X262000Y105260D03*
X500000Y105260D03*
D11*
X262000Y257660D03*
X500000Y257660D03*
D13*
X342900Y200660D03*
X406400Y226060D03*
D11*
X856400Y651440D03*
D12*
X805600Y651440D03*
X907200Y651440D03*
D15*
X926400Y532440D03*
X926400Y770440D03*
D11*
X774000Y532440D03*
X774000Y770440D03*
D13*
X818300Y676840D03*
X881800Y702240D03*
D11*
X475530Y937060D03*
D12*
X424730Y937060D03*
X526330Y937060D03*
D13*
X437430Y962460D03*
X500930Y987860D03*
D11*
X665670Y937060D03*
D12*
X614870Y937060D03*
X716470Y937060D03*
D13*
X627570Y962460D03*
X691070Y987860D03*
D11*
X284540Y747060D03*
D12*
X233740Y747060D03*
X335340Y747060D03*
D13*
X246440Y772460D03*
X309940Y797860D03*
D11*
X475790Y747060D03*
D12*
X424990Y747060D03*
X526590Y747060D03*
D13*
X437690Y772460D03*
X501190Y797860D03*
D11*
X665930Y746900D03*
D12*
X615130Y746900D03*
X716730Y746900D03*
D13*
X627830Y772300D03*
X691330Y797700D03*
D11*
X666800Y555810D03*
D12*
X616000Y555810D03*
X717600Y555810D03*
D13*
X628700Y581210D03*
X692200Y606610D03*
D11*
X475670Y557080D03*
D12*
X424870Y557080D03*
X526470Y557080D03*
D13*
X437570Y582480D03*
X501070Y607880D03*
D11*
X284380Y555810D03*
D12*
X233580Y555810D03*
X335180Y555810D03*
D13*
X246280Y581210D03*
X309780Y606610D03*
D11*
X284520Y365810D03*
D12*
X233720Y365810D03*
X335320Y365810D03*
D13*
X246420Y391210D03*
X309920Y416610D03*
D11*
X855910Y270810D03*
D12*
X805110Y270810D03*
X906710Y270810D03*
D15*
X925910Y151810D03*
X925910Y389810D03*
D11*
X773510Y151810D03*
X773510Y389810D03*
D13*
X817810Y296210D03*
X881310Y321610D03*
D11*
X475930Y365810D03*
D12*
X425130Y365810D03*
X526730Y365810D03*
D13*
X437830Y391210D03*
X501330Y416610D03*
D11*
X666800Y364400D03*
D12*
X616000Y364400D03*
X717600Y364400D03*
D13*
X628700Y389800D03*
X692200Y415200D03*
D16*
X42500Y715400D03*
X42500Y740800D03*
X42500Y766200D03*
X42500Y791600D03*
X42500Y817000D03*
X42500Y842400D03*
X42500Y867800D03*
X42500Y893200D03*
X42500Y918600D03*
X42500Y944000D03*
X42500Y969400D03*
X42500Y994800D03*
X193700Y715400D03*
X193700Y740800D03*
X193700Y766200D03*
X193700Y791600D03*
X193700Y817000D03*
X193700Y842400D03*
X193700Y867800D03*
X193700Y893200D03*
X193700Y918600D03*
X193700Y944000D03*
X193700Y969400D03*
X193700Y994800D03*
X80500Y953800D03*
X75520Y748400D03*
X161880Y748400D03*
D17*
X442950Y850000D03*
D16*
X537050Y850000D03*
D17*
X632950Y850000D03*
D16*
X727050Y850000D03*
D17*
X822950Y850000D03*
D16*
X917050Y850000D03*
D17*
X232950Y650000D03*
D16*
X327050Y650000D03*
D17*
X432950Y650000D03*
D16*
X527050Y650000D03*
D17*
X612950Y650000D03*
D16*
X707050Y650000D03*
D17*
X242950Y460000D03*
D16*
X337050Y460000D03*
D17*
X422950Y460000D03*
D16*
X517050Y460000D03*
D17*
X612950Y460000D03*
D16*
X707050Y460000D03*
D17*
X792950Y460000D03*
D16*
X887050Y460000D03*
D17*
X897050Y90000D03*
D16*
X802950Y90000D03*
D17*
X622950Y270000D03*
D16*
X717050Y270000D03*
D17*
X362950Y270000D03*
D16*
X457050Y270000D03*
D17*
X180000Y387050D03*
D16*
X180000Y292950D03*
D17*
X717050Y90000D03*
D16*
X622950Y90000D03*
D17*
X427050Y90000D03*
D16*
X332950Y90000D03*
D17*
X242950Y840000D03*
D16*
X337050Y840000D03*
D18*
X97536Y716280D03*
M02*
