G04 EAGLE Gerber RS-274X export*
G75*
%MOMM*%
%FSLAX34Y34*%
%LPD*%
%INSoldermask Top*%
%IPPOS*%
%AMOC8*
5,1,8,0,0,1.08239X$1,22.5*%
G01*
%ADD10C,0.001000*%
%ADD11C,2.203200*%
%ADD12R,3.203200X2.203200*%
%ADD13R,2.103200X2.103200*%
%ADD14C,2.103200*%
%ADD15R,1.600200X1.600200*%
%ADD16C,4.203200*%
%ADD17C,1.903200*%
%ADD18C,2.743200*%
%ADD19C,3.253200*%


D10*
X992960Y1113830D02*
X996100Y1113700D01*
X999215Y1113330D01*
X1002290Y1112720D01*
X1005320Y1111870D01*
X1008270Y1110780D01*
X1011120Y1109470D01*
X1013850Y1107930D01*
X1016470Y1106190D01*
X1018940Y1104250D01*
X1021250Y1102110D01*
X1023370Y1099800D01*
X1025330Y1097350D01*
X1027070Y1094730D01*
X1028610Y1091980D01*
X1029920Y1089130D01*
X1031010Y1086200D01*
X1031860Y1083170D01*
X1032470Y1080080D01*
X1032840Y1076960D01*
X1032970Y1073820D01*
X1032970Y41314D01*
X1032840Y38185D01*
X1032470Y35057D01*
X1031860Y31984D01*
X1031010Y28953D01*
X1029920Y26017D01*
X1028610Y23165D01*
X1027070Y20423D01*
X1025330Y17804D01*
X1023370Y15338D01*
X1021250Y13036D01*
X1018940Y10900D01*
X1016470Y8957D01*
X1013850Y7207D01*
X1011120Y5678D01*
X1008270Y4368D01*
X1005320Y3280D01*
X1002290Y2425D01*
X999215Y1819D01*
X996100Y1447D01*
X992960Y1309D01*
X40955Y1309D01*
X37814Y1447D01*
X34699Y1819D01*
X31612Y2425D01*
X28581Y3280D01*
X25645Y4368D01*
X22793Y5678D01*
X20050Y7207D01*
X17432Y8957D01*
X14979Y10900D01*
X12664Y13036D01*
X10528Y15338D01*
X8585Y17804D01*
X6849Y20423D01*
X5306Y23165D01*
X3996Y26017D01*
X2908Y28953D01*
X2053Y31984D01*
X1447Y35057D01*
X1075Y38185D01*
X951Y41314D01*
X951Y1073820D01*
X1075Y1076960D01*
X1447Y1080080D01*
X2053Y1083170D01*
X2908Y1086200D01*
X3996Y1089130D01*
X5306Y1091980D01*
X6849Y1094730D01*
X8585Y1097350D01*
X10528Y1099800D01*
X12664Y1102110D01*
X14979Y1104250D01*
X17432Y1106190D01*
X20050Y1107930D01*
X22793Y1109470D01*
X25645Y1110780D01*
X28581Y1111870D01*
X31612Y1112720D01*
X34699Y1113330D01*
X37814Y1113700D01*
X40955Y1113830D01*
X992960Y1113830D01*
X36311Y55576D02*
X32136Y53454D01*
X28815Y50133D01*
X26679Y45957D01*
X25949Y41314D01*
X26679Y36683D01*
X28815Y32508D01*
X32136Y29187D01*
X36311Y27051D01*
X40955Y26307D01*
X45586Y27051D01*
X49761Y29187D01*
X53082Y32508D01*
X55218Y36683D01*
X55948Y41314D01*
X55218Y45957D01*
X53082Y50133D01*
X49761Y53454D01*
X45586Y55576D01*
X40955Y56307D01*
X36311Y55576D01*
X984141Y53454D02*
X988328Y55576D01*
X984141Y53454D02*
X980818Y50133D01*
X978697Y45957D01*
X977967Y41314D01*
X978697Y36683D01*
X980818Y32508D01*
X984141Y29187D01*
X988328Y27051D01*
X992960Y26307D01*
X997589Y27051D01*
X1001780Y29187D01*
X1005100Y32508D01*
X1007220Y36683D01*
X1007970Y41314D01*
X1007220Y45957D01*
X1005100Y50133D01*
X1001780Y53454D01*
X997589Y55576D01*
X992960Y56307D01*
X988328Y55576D01*
X311451Y236568D02*
X311451Y246572D01*
X311451Y236568D02*
X303458Y236568D01*
X303458Y205576D01*
X311451Y205576D01*
X311451Y199567D01*
X296209Y199567D01*
X296209Y231869D01*
X278956Y231869D01*
X278956Y241074D01*
X245938Y241074D01*
X245938Y231869D01*
X228699Y231869D01*
X228699Y199567D01*
X220445Y199567D01*
X220445Y171579D01*
X228699Y171579D01*
X228699Y108879D01*
X245938Y108879D01*
X245938Y99067D01*
X278956Y99067D01*
X278956Y108879D01*
X296209Y108879D01*
X296209Y153569D01*
X311451Y153569D01*
X311451Y147574D01*
X303458Y147574D01*
X303458Y116568D01*
X311451Y116568D01*
X311451Y106577D01*
X451460Y106577D01*
X451460Y116568D01*
X459451Y116568D01*
X459451Y147574D01*
X451460Y147574D01*
X451460Y153569D01*
X466700Y153569D01*
X466700Y108879D01*
X483955Y108879D01*
X483955Y99067D01*
X516943Y99067D01*
X516943Y108879D01*
X534197Y108879D01*
X534197Y171579D01*
X542452Y171579D01*
X542452Y199567D01*
X534197Y199567D01*
X534197Y231869D01*
X516943Y231869D01*
X516943Y241074D01*
X483955Y241074D01*
X483955Y231869D01*
X466700Y231869D01*
X466700Y199567D01*
X451460Y199567D01*
X451460Y205576D01*
X459451Y205576D01*
X459451Y236568D01*
X451460Y236568D01*
X451460Y246572D01*
X311451Y246572D01*
X597200Y246572D02*
X597200Y236568D01*
X589209Y236568D01*
X589209Y205576D01*
X597200Y205576D01*
X597200Y147574D01*
X589209Y147574D01*
X589209Y116568D01*
X597200Y116568D01*
X597200Y106577D01*
X737210Y106577D01*
X737210Y116568D01*
X745201Y116568D01*
X745201Y147574D01*
X737210Y147574D01*
X737210Y205576D01*
X745201Y205576D01*
X745201Y236568D01*
X737210Y236568D01*
X737210Y246572D01*
X597200Y246572D01*
X852703Y424575D02*
X852703Y432827D01*
X852703Y424575D02*
X790004Y424575D01*
X790004Y407321D01*
X780203Y407321D01*
X780203Y374315D01*
X790004Y374315D01*
X790004Y357078D01*
X834704Y357078D01*
X834704Y341822D01*
X828696Y341822D01*
X828696Y349829D01*
X797705Y349829D01*
X797705Y341822D01*
X787700Y341822D01*
X787700Y201827D01*
X797705Y201827D01*
X797705Y193821D01*
X828696Y193821D01*
X828696Y201827D01*
X834704Y201827D01*
X834704Y186573D01*
X790004Y186573D01*
X790004Y169320D01*
X780203Y169320D01*
X780203Y136329D01*
X790004Y136329D01*
X790004Y119076D01*
X852703Y119076D01*
X852703Y110822D01*
X880703Y110822D01*
X880703Y119076D01*
X913007Y119076D01*
X913007Y136329D01*
X922211Y136329D01*
X922211Y169320D01*
X913007Y169320D01*
X913007Y186573D01*
X880703Y186573D01*
X880703Y201827D01*
X886700Y201827D01*
X886700Y193821D01*
X917706Y193821D01*
X917706Y201827D01*
X927710Y201827D01*
X927710Y341822D01*
X917706Y341822D01*
X917706Y349829D01*
X886700Y349829D01*
X886700Y341822D01*
X880703Y341822D01*
X880703Y357078D01*
X913007Y357078D01*
X913007Y374315D01*
X922211Y374315D01*
X922211Y407321D01*
X913007Y407321D01*
X913007Y424575D01*
X880703Y424575D01*
X880703Y432827D01*
X852703Y432827D01*
X597200Y437074D02*
X597200Y427069D01*
X589209Y427069D01*
X589209Y396074D01*
X597200Y396074D01*
X597200Y338074D01*
X589209Y338074D01*
X589209Y307068D01*
X597200Y307068D01*
X597200Y297077D01*
X737210Y297077D01*
X737210Y307068D01*
X745201Y307068D01*
X745201Y338074D01*
X737210Y338074D01*
X737210Y396074D01*
X745201Y396074D01*
X745201Y427069D01*
X737210Y427069D01*
X737210Y437074D01*
X597200Y437074D01*
X406700Y437074D02*
X406700Y427069D01*
X398709Y427069D01*
X398709Y396074D01*
X406700Y396074D01*
X406700Y338074D01*
X398709Y338074D01*
X398709Y307068D01*
X406700Y307068D01*
X406700Y297077D01*
X546710Y297077D01*
X546710Y307068D01*
X554701Y307068D01*
X554701Y338074D01*
X546710Y338074D01*
X546710Y396074D01*
X554701Y396074D01*
X554701Y427069D01*
X546710Y427069D01*
X546710Y437074D01*
X406700Y437074D01*
X216201Y437074D02*
X216201Y427069D01*
X208194Y427069D01*
X208194Y396074D01*
X216201Y396074D01*
X216201Y338074D01*
X208194Y338074D01*
X208194Y307068D01*
X216201Y307068D01*
X216201Y297077D01*
X356210Y297077D01*
X356210Y307068D01*
X364201Y307068D01*
X364201Y338074D01*
X356210Y338074D01*
X356210Y396074D01*
X364201Y396074D01*
X364201Y427069D01*
X356210Y427069D01*
X356210Y437074D01*
X216201Y437074D01*
X597200Y617569D02*
X597200Y627574D01*
X597200Y617569D02*
X589209Y617569D01*
X589209Y586574D01*
X597200Y586574D01*
X597200Y528574D01*
X589209Y528574D01*
X589209Y497568D01*
X597200Y497568D01*
X597200Y487578D01*
X737210Y487578D01*
X737210Y497568D01*
X745201Y497568D01*
X745201Y528574D01*
X737210Y528574D01*
X737210Y586574D01*
X745201Y586574D01*
X745201Y617569D01*
X737210Y617569D01*
X737210Y627574D01*
X597200Y627574D01*
X406700Y627574D02*
X406700Y617569D01*
X398709Y617569D01*
X398709Y586574D01*
X406700Y586574D01*
X406700Y528574D01*
X398709Y528574D01*
X398709Y497568D01*
X406700Y497568D01*
X406700Y487578D01*
X546710Y487578D01*
X546710Y497568D01*
X554701Y497568D01*
X554701Y528574D01*
X546710Y528574D01*
X546710Y586574D01*
X554701Y586574D01*
X554701Y617569D01*
X546710Y617569D01*
X546710Y627574D01*
X406700Y627574D01*
X216201Y627574D02*
X216201Y617569D01*
X208194Y617569D01*
X208194Y586574D01*
X216201Y586574D01*
X216201Y528574D01*
X208194Y528574D01*
X208194Y497568D01*
X216201Y497568D01*
X216201Y487578D01*
X356210Y487578D01*
X356210Y497568D01*
X364201Y497568D01*
X364201Y528574D01*
X356210Y528574D01*
X356210Y586574D01*
X364201Y586574D01*
X364201Y617569D01*
X356210Y617569D01*
X356210Y627574D01*
X216201Y627574D01*
X852703Y805575D02*
X852703Y813827D01*
X852703Y805575D02*
X790004Y805575D01*
X790004Y788321D01*
X780203Y788321D01*
X780203Y755315D01*
X790004Y755315D01*
X790004Y738078D01*
X834704Y738078D01*
X834704Y722824D01*
X828696Y722824D01*
X828696Y730829D01*
X797705Y730829D01*
X797705Y722824D01*
X787700Y722824D01*
X787700Y582828D01*
X797705Y582828D01*
X797705Y574820D01*
X828696Y574820D01*
X828696Y582828D01*
X834704Y582828D01*
X834704Y567574D01*
X790004Y567574D01*
X790004Y550319D01*
X780203Y550319D01*
X780203Y517331D01*
X790004Y517331D01*
X790004Y500077D01*
X852703Y500077D01*
X852703Y491822D01*
X880703Y491822D01*
X880703Y500077D01*
X913007Y500077D01*
X913007Y517331D01*
X922211Y517331D01*
X922211Y550319D01*
X913007Y550319D01*
X913007Y567574D01*
X880703Y567574D01*
X880703Y582828D01*
X886700Y582828D01*
X886700Y574820D01*
X917706Y574820D01*
X917706Y582828D01*
X927710Y582828D01*
X927710Y722824D01*
X917706Y722824D01*
X917706Y730829D01*
X886700Y730829D01*
X886700Y722824D01*
X880703Y722824D01*
X880703Y738078D01*
X913007Y738078D01*
X913007Y755315D01*
X922211Y755315D01*
X922211Y788321D01*
X913007Y788321D01*
X913007Y805575D01*
X880703Y805575D01*
X880703Y813827D01*
X852703Y813827D01*
X36311Y571846D02*
X32136Y569708D01*
X28815Y566388D01*
X26679Y562211D01*
X25949Y557569D01*
X26679Y552937D01*
X28815Y548749D01*
X32136Y545426D01*
X36311Y543306D01*
X40955Y542576D01*
X45586Y543306D01*
X49761Y545426D01*
X53082Y548749D01*
X55218Y552937D01*
X55948Y557569D01*
X55218Y562211D01*
X53082Y566388D01*
X49761Y569708D01*
X45586Y571846D01*
X40955Y572576D01*
X36311Y571846D01*
X984141Y569708D02*
X988328Y571846D01*
X984141Y569708D02*
X980818Y566388D01*
X978697Y562211D01*
X977967Y557569D01*
X978697Y552937D01*
X980818Y548749D01*
X984141Y545426D01*
X988328Y543306D01*
X992960Y542576D01*
X997589Y543306D01*
X1001780Y545426D01*
X1005100Y548749D01*
X1007220Y552937D01*
X1007970Y557569D01*
X1007220Y562211D01*
X1005100Y566388D01*
X1001780Y569708D01*
X997589Y571846D01*
X992960Y572576D01*
X988328Y571846D01*
X597200Y808069D02*
X597200Y818074D01*
X597200Y808069D02*
X589209Y808069D01*
X589209Y777074D01*
X597200Y777074D01*
X597200Y719074D01*
X589209Y719074D01*
X589209Y688068D01*
X597200Y688068D01*
X597200Y678078D01*
X737210Y678078D01*
X737210Y688068D01*
X745201Y688068D01*
X745201Y719074D01*
X737210Y719074D01*
X737210Y777074D01*
X745201Y777074D01*
X745201Y808069D01*
X737210Y808069D01*
X737210Y818074D01*
X597200Y818074D01*
X406700Y818074D02*
X406700Y808069D01*
X398709Y808069D01*
X398709Y777074D01*
X406700Y777074D01*
X406700Y719074D01*
X398709Y719074D01*
X398709Y688068D01*
X406700Y688068D01*
X406700Y678078D01*
X546710Y678078D01*
X546710Y688068D01*
X554701Y688068D01*
X554701Y719074D01*
X546710Y719074D01*
X546710Y777074D01*
X554701Y777074D01*
X554701Y808069D01*
X546710Y808069D01*
X546710Y818074D01*
X406700Y818074D01*
X216201Y818074D02*
X216201Y808069D01*
X208194Y808069D01*
X208194Y777074D01*
X216201Y777074D01*
X216201Y719074D01*
X208194Y719074D01*
X208194Y688068D01*
X216201Y688068D01*
X216201Y678078D01*
X356210Y678078D01*
X356210Y688068D01*
X364201Y688068D01*
X364201Y719074D01*
X356210Y719074D01*
X356210Y777074D01*
X364201Y777074D01*
X364201Y808069D01*
X356210Y808069D01*
X356210Y818074D01*
X216201Y818074D01*
X787700Y998569D02*
X787700Y1008580D01*
X787700Y998569D02*
X779709Y998569D01*
X779709Y967574D01*
X787700Y967574D01*
X787700Y909588D01*
X779709Y909588D01*
X779709Y878568D01*
X787700Y878568D01*
X787700Y868578D01*
X927710Y868578D01*
X927710Y878568D01*
X935701Y878568D01*
X935701Y909588D01*
X927710Y909588D01*
X927710Y967574D01*
X935701Y967574D01*
X935701Y998569D01*
X927710Y998569D01*
X927710Y1008580D01*
X787700Y1008580D01*
X597200Y1008580D02*
X597200Y998569D01*
X589209Y998569D01*
X589209Y967574D01*
X597200Y967574D01*
X597200Y909588D01*
X589209Y909588D01*
X589209Y878568D01*
X597200Y878568D01*
X597200Y868578D01*
X737210Y868578D01*
X737210Y878568D01*
X745201Y878568D01*
X745201Y909588D01*
X737210Y909588D01*
X737210Y967574D01*
X745201Y967574D01*
X745201Y998569D01*
X737210Y998569D01*
X737210Y1008580D01*
X597200Y1008580D01*
X406700Y1008580D02*
X406700Y998569D01*
X398709Y998569D01*
X398709Y967574D01*
X406700Y967574D01*
X406700Y909588D01*
X398709Y909588D01*
X398709Y878568D01*
X406700Y878568D01*
X406700Y868578D01*
X546710Y868578D01*
X546710Y878568D01*
X554701Y878568D01*
X554701Y909588D01*
X546710Y909588D01*
X546710Y967574D01*
X554701Y967574D01*
X554701Y998569D01*
X546710Y998569D01*
X546710Y1008580D01*
X406700Y1008580D01*
X216201Y1008580D02*
X216201Y998569D01*
X208194Y998569D01*
X208194Y967574D01*
X216201Y967574D01*
X216201Y909588D01*
X208194Y909588D01*
X208194Y878568D01*
X216201Y878568D01*
X216201Y868578D01*
X356210Y868578D01*
X356210Y878568D01*
X364201Y878568D01*
X364201Y909588D01*
X356210Y909588D01*
X356210Y967574D01*
X364201Y967574D01*
X364201Y998569D01*
X356210Y998569D01*
X356210Y1008580D01*
X216201Y1008580D01*
X36311Y1088100D02*
X32136Y1085960D01*
X28815Y1082640D01*
X26679Y1078470D01*
X25949Y1073820D01*
X26679Y1069190D01*
X28815Y1065020D01*
X32136Y1061700D01*
X36311Y1059560D01*
X40955Y1058830D01*
X45586Y1059560D01*
X49761Y1061700D01*
X53082Y1065020D01*
X55218Y1069190D01*
X55948Y1073820D01*
X55218Y1078470D01*
X53082Y1082640D01*
X49761Y1085960D01*
X45586Y1088100D01*
X40955Y1088830D01*
X36311Y1088100D01*
X984141Y1085960D02*
X988328Y1088100D01*
X984141Y1085960D02*
X980818Y1082640D01*
X978697Y1078470D01*
X977967Y1073820D01*
X978697Y1069190D01*
X980818Y1065020D01*
X984141Y1061700D01*
X988328Y1059560D01*
X992960Y1058830D01*
X997589Y1059560D01*
X1001780Y1061700D01*
X1005100Y1065020D01*
X1007220Y1069190D01*
X1007970Y1073820D01*
X1007220Y1078470D01*
X1005100Y1082640D01*
X1001780Y1085960D01*
X997589Y1088100D01*
X992960Y1088830D01*
X988328Y1088100D01*
D11*
X36179Y755667D03*
X36179Y781067D03*
X36179Y806467D03*
X36179Y831867D03*
X36179Y857267D03*
X36179Y882667D03*
X36179Y908067D03*
X36179Y933467D03*
X36179Y958867D03*
X36179Y984267D03*
X36179Y1009667D03*
X36179Y1035067D03*
X187379Y755667D03*
X187379Y781067D03*
X187379Y806467D03*
X187379Y831867D03*
X187379Y857267D03*
X187379Y882667D03*
X187379Y908067D03*
X187379Y933467D03*
X187379Y958867D03*
X187379Y984267D03*
X187379Y1009667D03*
X187379Y1035067D03*
X74179Y994067D03*
X69199Y788667D03*
X155559Y788667D03*
D12*
X40000Y687500D03*
X40000Y612500D03*
X180000Y612500D03*
X180000Y687500D03*
D13*
X325000Y840000D03*
D14*
X255000Y840000D03*
D15*
X306510Y840000D03*
X273490Y840000D03*
D13*
X505000Y850000D03*
D14*
X435000Y850000D03*
D15*
X486510Y850000D03*
X453490Y850000D03*
D13*
X695000Y850000D03*
D14*
X625000Y850000D03*
D15*
X676510Y850000D03*
X643490Y850000D03*
D13*
X885000Y840000D03*
D14*
X815000Y840000D03*
D15*
X866510Y840000D03*
X833490Y840000D03*
D13*
X315000Y650000D03*
D14*
X245000Y650000D03*
D15*
X296510Y650000D03*
X263490Y650000D03*
D13*
X515000Y660000D03*
D14*
X445000Y660000D03*
D15*
X496510Y660000D03*
X463490Y660000D03*
D13*
X685000Y660000D03*
D14*
X615000Y660000D03*
D15*
X666510Y660000D03*
X633490Y660000D03*
D13*
X885000Y460000D03*
D14*
X815000Y460000D03*
D15*
X866510Y460000D03*
X833490Y460000D03*
D13*
X685000Y470000D03*
D14*
X615000Y470000D03*
D15*
X666510Y470000D03*
X633490Y470000D03*
D13*
X505000Y470000D03*
D14*
X435000Y470000D03*
D15*
X486510Y470000D03*
X453490Y470000D03*
D13*
X315000Y460000D03*
D14*
X245000Y460000D03*
D15*
X296510Y460000D03*
X263490Y460000D03*
D13*
X185000Y360000D03*
D14*
X115000Y360000D03*
D15*
X166510Y360000D03*
X133490Y360000D03*
D13*
X455000Y270000D03*
D14*
X385000Y270000D03*
D15*
X436510Y270000D03*
X403490Y270000D03*
D13*
X695000Y280000D03*
D14*
X625000Y280000D03*
D15*
X676510Y280000D03*
X643490Y280000D03*
D13*
X895000Y80000D03*
D14*
X825000Y80000D03*
D15*
X876510Y80000D03*
X843490Y80000D03*
D13*
X695000Y80000D03*
D14*
X625000Y80000D03*
D15*
X676510Y80000D03*
X643490Y80000D03*
D13*
X405000Y80000D03*
D14*
X335000Y80000D03*
D15*
X386510Y80000D03*
X353490Y80000D03*
D16*
X290000Y940000D03*
D17*
X239200Y940000D03*
X340800Y940000D03*
D18*
X251900Y965400D03*
X315400Y990800D03*
D16*
X480000Y940000D03*
D17*
X429200Y940000D03*
X530800Y940000D03*
D18*
X441900Y965400D03*
X505400Y990800D03*
D16*
X670000Y940000D03*
D17*
X619200Y940000D03*
X720800Y940000D03*
D18*
X631900Y965400D03*
X695400Y990800D03*
D16*
X860000Y940000D03*
D17*
X809200Y940000D03*
X910800Y940000D03*
D18*
X821900Y965400D03*
X885400Y990800D03*
D16*
X290000Y750000D03*
D17*
X239200Y750000D03*
X340800Y750000D03*
D18*
X251900Y775400D03*
X315400Y800800D03*
D16*
X480000Y750000D03*
D17*
X429200Y750000D03*
X530800Y750000D03*
D18*
X441900Y775400D03*
X505400Y800800D03*
D16*
X670000Y750000D03*
D17*
X619200Y750000D03*
X720800Y750000D03*
D18*
X631900Y775400D03*
X695400Y800800D03*
D16*
X670000Y560000D03*
D17*
X619200Y560000D03*
X720800Y560000D03*
D18*
X631900Y585400D03*
X695400Y610800D03*
D16*
X480000Y560000D03*
D17*
X429200Y560000D03*
X530800Y560000D03*
D18*
X441900Y585400D03*
X505400Y610800D03*
D16*
X290000Y560000D03*
D17*
X239200Y560000D03*
X340800Y560000D03*
D18*
X251900Y585400D03*
X315400Y610800D03*
D16*
X287758Y365964D03*
D17*
X236958Y365964D03*
X338558Y365964D03*
D18*
X249658Y391364D03*
X313158Y416764D03*
D16*
X480000Y370000D03*
D17*
X429200Y370000D03*
X530800Y370000D03*
D18*
X441900Y395400D03*
X505400Y420800D03*
D16*
X670000Y370000D03*
D17*
X619200Y370000D03*
X720800Y370000D03*
D18*
X631900Y395400D03*
X695400Y420800D03*
D16*
X670000Y180000D03*
D17*
X619200Y180000D03*
X720800Y180000D03*
D18*
X631900Y205400D03*
X695400Y230800D03*
D16*
X381489Y176303D03*
D17*
X330689Y176303D03*
X432289Y176303D03*
D19*
X262489Y106303D03*
X500489Y106303D03*
D16*
X262489Y258703D03*
X500489Y258703D03*
D18*
X343389Y201703D03*
X406889Y227103D03*
D16*
X857259Y651537D03*
D17*
X806459Y651537D03*
X908059Y651537D03*
D19*
X927259Y532537D03*
X927259Y770537D03*
D16*
X774859Y532537D03*
X774859Y770537D03*
D18*
X819159Y676937D03*
X882659Y702337D03*
D16*
X860000Y270000D03*
D17*
X809200Y270000D03*
X910800Y270000D03*
D19*
X930000Y151000D03*
X930000Y389000D03*
D16*
X777600Y151000D03*
X777600Y389000D03*
D18*
X821900Y295400D03*
X885400Y320800D03*
M02*
