G04 EAGLE Gerber RS-274X export*
G75*
%MOMM*%
%FSLAX34Y34*%
%LPD*%
%INSoldermask Bottom*%
%IPPOS*%
%AMOC8*
5,1,8,0,0,1.08239X$1,22.5*%
G01*
%ADD10C,2.203200*%
%ADD11R,2.103200X2.103200*%
%ADD12C,2.103200*%
%ADD13R,1.600200X1.600200*%
%ADD14C,4.203200*%
%ADD15C,1.903200*%
%ADD16C,2.743200*%
%ADD17C,3.253200*%


D10*
X36179Y755667D03*
X36179Y781067D03*
X36179Y806467D03*
X36179Y831867D03*
X36179Y857267D03*
X36179Y882667D03*
X36179Y908067D03*
X36179Y933467D03*
X36179Y958867D03*
X36179Y984267D03*
X36179Y1009667D03*
X36179Y1035067D03*
X187379Y755667D03*
X187379Y781067D03*
X187379Y806467D03*
X187379Y831867D03*
X187379Y857267D03*
X187379Y882667D03*
X187379Y908067D03*
X187379Y933467D03*
X187379Y958867D03*
X187379Y984267D03*
X187379Y1009667D03*
X187379Y1035067D03*
X74179Y994067D03*
X69199Y788667D03*
X155559Y788667D03*
D11*
X325000Y840000D03*
D12*
X255000Y840000D03*
D13*
X273490Y840000D03*
X306510Y840000D03*
D11*
X505000Y850000D03*
D12*
X435000Y850000D03*
D13*
X453490Y850000D03*
X486510Y850000D03*
D11*
X695000Y850000D03*
D12*
X625000Y850000D03*
D13*
X643490Y850000D03*
X676510Y850000D03*
D11*
X885000Y840000D03*
D12*
X815000Y840000D03*
D13*
X833490Y840000D03*
X866510Y840000D03*
D11*
X315000Y650000D03*
D12*
X245000Y650000D03*
D13*
X263490Y650000D03*
X296510Y650000D03*
D11*
X515000Y660000D03*
D12*
X445000Y660000D03*
D13*
X463490Y660000D03*
X496510Y660000D03*
D11*
X685000Y660000D03*
D12*
X615000Y660000D03*
D13*
X633490Y660000D03*
X666510Y660000D03*
D11*
X885000Y460000D03*
D12*
X815000Y460000D03*
D13*
X833490Y460000D03*
X866510Y460000D03*
D11*
X685000Y470000D03*
D12*
X615000Y470000D03*
D13*
X633490Y470000D03*
X666510Y470000D03*
D11*
X505000Y470000D03*
D12*
X435000Y470000D03*
D13*
X453490Y470000D03*
X486510Y470000D03*
D11*
X315000Y460000D03*
D12*
X245000Y460000D03*
D13*
X263490Y460000D03*
X296510Y460000D03*
D11*
X185000Y360000D03*
D12*
X115000Y360000D03*
D13*
X133490Y360000D03*
X166510Y360000D03*
D11*
X455000Y270000D03*
D12*
X385000Y270000D03*
D13*
X403490Y270000D03*
X436510Y270000D03*
D11*
X695000Y280000D03*
D12*
X625000Y280000D03*
D13*
X643490Y280000D03*
X676510Y280000D03*
D11*
X895000Y80000D03*
D12*
X825000Y80000D03*
D13*
X843490Y80000D03*
X876510Y80000D03*
D11*
X695000Y80000D03*
D12*
X625000Y80000D03*
D13*
X643490Y80000D03*
X676510Y80000D03*
D11*
X405000Y80000D03*
D12*
X335000Y80000D03*
D13*
X353490Y80000D03*
X386510Y80000D03*
D14*
X290000Y940000D03*
D15*
X239200Y940000D03*
X340800Y940000D03*
D16*
X251900Y965400D03*
X315400Y990800D03*
D14*
X480000Y940000D03*
D15*
X429200Y940000D03*
X530800Y940000D03*
D16*
X441900Y965400D03*
X505400Y990800D03*
D14*
X670000Y940000D03*
D15*
X619200Y940000D03*
X720800Y940000D03*
D16*
X631900Y965400D03*
X695400Y990800D03*
D14*
X860000Y940000D03*
D15*
X809200Y940000D03*
X910800Y940000D03*
D16*
X821900Y965400D03*
X885400Y990800D03*
D14*
X290000Y750000D03*
D15*
X239200Y750000D03*
X340800Y750000D03*
D16*
X251900Y775400D03*
X315400Y800800D03*
D14*
X480000Y750000D03*
D15*
X429200Y750000D03*
X530800Y750000D03*
D16*
X441900Y775400D03*
X505400Y800800D03*
D14*
X670000Y750000D03*
D15*
X619200Y750000D03*
X720800Y750000D03*
D16*
X631900Y775400D03*
X695400Y800800D03*
D14*
X670000Y560000D03*
D15*
X619200Y560000D03*
X720800Y560000D03*
D16*
X631900Y585400D03*
X695400Y610800D03*
D14*
X480000Y560000D03*
D15*
X429200Y560000D03*
X530800Y560000D03*
D16*
X441900Y585400D03*
X505400Y610800D03*
D14*
X290000Y560000D03*
D15*
X239200Y560000D03*
X340800Y560000D03*
D16*
X251900Y585400D03*
X315400Y610800D03*
D14*
X287758Y365964D03*
D15*
X236958Y365964D03*
X338558Y365964D03*
D16*
X249658Y391364D03*
X313158Y416764D03*
D14*
X480000Y370000D03*
D15*
X429200Y370000D03*
X530800Y370000D03*
D16*
X441900Y395400D03*
X505400Y420800D03*
D14*
X670000Y370000D03*
D15*
X619200Y370000D03*
X720800Y370000D03*
D16*
X631900Y395400D03*
X695400Y420800D03*
D14*
X670000Y180000D03*
D15*
X619200Y180000D03*
X720800Y180000D03*
D16*
X631900Y205400D03*
X695400Y230800D03*
D14*
X381489Y176303D03*
D15*
X330689Y176303D03*
X432289Y176303D03*
D17*
X262489Y106303D03*
X500489Y106303D03*
D14*
X262489Y258703D03*
X500489Y258703D03*
D16*
X343389Y201703D03*
X406889Y227103D03*
D14*
X857259Y651537D03*
D15*
X806459Y651537D03*
X908059Y651537D03*
D17*
X927259Y532537D03*
X927259Y770537D03*
D14*
X774859Y532537D03*
X774859Y770537D03*
D16*
X819159Y676937D03*
X882659Y702337D03*
D14*
X860000Y270000D03*
D15*
X809200Y270000D03*
X910800Y270000D03*
D17*
X930000Y151000D03*
X930000Y389000D03*
D14*
X777600Y151000D03*
X777600Y389000D03*
D16*
X821900Y295400D03*
X885400Y320800D03*
M02*
