M48
;GenerationSoftware,Autodesk,EAGLE,9.6.1*%
;CreationDate,2020-05-07T00:00:04Z*%
FMAT,2
ICI,OFF
METRIC,TZ,000.000
T8C0.350
T7C1.000
T6C1.300
T5C1.700
T4C2.000
T3C3.000
T2C3.050
T1C4.000
%
G90
M71
T1
X50000Y25766
X66548Y17526
X28454Y74706
X66680Y55581
X28448Y93726
X66593Y74690
X66680Y36440
X85598Y93726
X77351Y38981
X38100Y17526
X77351Y15181
X26200Y25766
X85640Y65144
X85591Y27081
X47593Y36581
X28452Y36581
X77400Y53244
X77400Y77044
X47553Y93706
X47579Y74706
X28438Y55581
X66567Y93706
X47567Y55708
T2
X92640Y53244
X92591Y38981
X26200Y10526
X50000Y10526
X92591Y15181
X92640Y77044
T3
X3937Y55626
T4
X16188Y74840
X8050Y95380
X7552Y74840
T5
X61468Y17526
X71628Y17526
X23368Y93726
X33534Y74706
X61513Y74690
X71673Y74690
X23374Y74706
X71647Y93706
X71760Y55581
X61487Y93706
X42487Y55708
X52647Y55708
X52633Y93706
X23358Y55581
X33518Y55581
X61600Y55581
X23372Y36581
X90720Y65144
X80560Y65144
X80511Y27081
X90671Y27081
X80518Y93726
X43180Y17526
X33020Y17526
X90678Y93726
X42473Y93706
X42513Y36581
X52673Y36581
X33528Y93726
X61600Y36440
X71760Y36440
X42499Y74706
X52659Y74706
X33532Y36581
T6
X69220Y41520
X62738Y20066
X69088Y22606
X24638Y96266
X30988Y98806
X81788Y96266
X88138Y98806
X34290Y20066
X40640Y22606
X81830Y67684
X88180Y70224
X43743Y96246
X50093Y98786
X62757Y96246
X69107Y98786
X24644Y77246
X30994Y79786
X43769Y77246
X50119Y79786
X62783Y77230
X69133Y79770
X62870Y58121
X69220Y60661
X43757Y58248
X50107Y60788
X24628Y58121
X30978Y60661
X24642Y39121
X30992Y41661
X81781Y29621
X88131Y32161
X43783Y39121
X50133Y41661
X62870Y38980
T7
X4250Y86780
X4250Y71540
X4250Y74080
X4250Y76620
X4250Y79160
X4250Y81700
X4250Y84240
X19370Y74080
X4250Y89320
X4250Y91860
X4250Y94400
X4250Y96940
X4250Y99480
X19370Y71540
X33705Y84000
X19370Y76620
X19370Y79160
X19370Y81700
X19370Y84240
X19370Y86780
X19370Y89320
X19370Y91860
X19370Y94400
X19370Y96940
X19370Y99480
X44295Y85000
X53705Y85000
X63295Y85000
X72705Y85000
X82295Y85000
X91705Y85000
X23295Y65000
X32705Y65000
X43295Y65000
X52705Y65000
X61295Y65000
X70705Y65000
X24295Y46000
X33705Y46000
X42295Y46000
X51705Y46000
X61295Y46000
X70705Y46000
X79295Y46000
X88705Y46000
X89705Y9000
X80295Y9000
X62295Y27000
X71705Y27000
X36295Y27000
X45705Y27000
X18000Y38705
X18000Y29295
X71705Y9000
X62295Y9000
X42705Y9000
X33295Y9000
X24295Y84000
T8
X9754Y71628
M30