M48
;GenerationSoftware,Autodesk,EAGLE,9.6.1*%
;CreationDate,2020-05-06T20:17:18Z*%
FMAT,2
ICI,OFF
METRIC,TZ,000.000
T6C1.000
T5C1.300
T4C1.700
T3C2.000
T2C3.050
T1C4.000
%
G90
M71
T1
X29000Y94000
X29000Y75000
X29000Y56000
X48000Y94000
X48000Y56000
X77760Y38900
X67000Y94000
X48000Y75000
X67000Y56000
X86000Y94000
X28776Y36596
X67000Y75000
X48000Y37000
X67000Y37000
X67000Y18000
X38149Y17630
X77486Y53254
X26249Y25870
X50049Y25870
X85726Y65154
X77486Y77054
X86000Y27000
X77760Y15100
T2
X26249Y10630
X92726Y53254
X92726Y77054
X93000Y15100
X93000Y38900
X50049Y10630
T3
X7418Y99407
X6920Y78867
X15556Y78867
T4
X34080Y56000
X53080Y94000
X23696Y36596
X33856Y36596
X23920Y94000
X42920Y37000
X53080Y37000
X34080Y94000
X61920Y37000
X72080Y37000
X42920Y94000
X61920Y18000
X72080Y18000
X61920Y94000
X33069Y17630
X43229Y17630
X72080Y94000
X80920Y94000
X91080Y94000
X23920Y75000
X34080Y75000
X80646Y65154
X90806Y65154
X42920Y75000
X53080Y75000
X61920Y56000
X61920Y75000
X72080Y75000
X80920Y27000
X91080Y27000
X72080Y56000
X42920Y56000
X53080Y56000
X23920Y56000
T5
X24966Y39136
X31316Y41676
X44190Y39540
X50540Y42080
X63190Y39540
X69540Y42080
X63190Y20540
X69540Y23080
X34339Y20170
X40689Y22710
X81916Y67694
X88266Y70234
X82190Y29540
X88540Y32080
X63190Y58540
X25190Y96540
X31540Y99080
X44190Y96540
X50540Y99080
X63190Y96540
X69540Y99080
X82190Y96540
X88540Y99080
X25190Y77540
X31540Y80080
X44190Y77540
X50540Y80080
X63190Y77540
X69540Y80080
X69540Y61080
X44190Y58540
X50540Y61080
X25190Y58540
X31540Y61080
T6
X3618Y75567
X3618Y78107
X3618Y80647
X3618Y83187
X3618Y85727
X3618Y88267
X3618Y90807
X3618Y93347
X3618Y95887
X3618Y98427
X3618Y100967
X3618Y103507
X18738Y75567
X11500Y36000
X45500Y27000
X38500Y27000
X69500Y28000
X62500Y28000
X89500Y8000
X18738Y80647
X69500Y8000
X62500Y8000
X40500Y8000
X33500Y8000
X18738Y83187
X18738Y85727
X18738Y88267
X18738Y90807
X18738Y93347
X18738Y95887
X18738Y98427
X18738Y100967
X18738Y103507
X32500Y84000
X25500Y84000
X50500Y85000
X43500Y85000
X69500Y85000
X18738Y78107
X62500Y85000
X88500Y84000
X81500Y84000
X31500Y65000
X24500Y65000
X51500Y66000
X44500Y66000
X68500Y66000
X61500Y66000
X88500Y46000
X81500Y46000
X68500Y47000
X61500Y47000
X50500Y47000
X43500Y47000
X31500Y46000
X24500Y46000
X18500Y36000
X82500Y8000
M30